<svg xmlns="http://www.w3.org/2000/svg" viewBox="0 0 889.13 1860.73"><g style="isolation:isolate"><rect x="484.5" y="15.73" width="16.85" height="1016.24" fill="#ebebec" style="mix-blend-mode:multiply"/><path d="M824.32,1684.81c-204.12-61.12-.63-441.32-245.1-483.4a213,213,0,0,0,4.28-32.53c2.76-56.61-16.37-103.62-42.67-104.87s-49.94,43.61-52.72,100.21a210.67,210.67,0,0,0,1.11,32.77c-247.41,18.06-82,416.31-291,457.23,0,0-3.41,77.43,247,100.74-.07.81-.33,1.52-.38,2.31-1.49,31.2,25,57.73,59.26,59.41s63.28-22.18,64.8-53.36c0-.8-.13-1.5-.17-2.33C820.11,1762.2,824.32,1684.81,824.32,1684.81Z" fill="#ebebec" style="mix-blend-mode:multiply"/><path d="M534.85,1145.83a210.29,210.29,0,0,0,4.29-32.51c2.75-56.6-16.36-103.61-42.68-104.88s-49.94,43.61-52.71,100.23a212.89,212.89,0,0,0,1.1,32.76c-247.38,18-82,416.32-291,457.22,0,0-3.42,77.43,246.94,100.77,0,.8-.32,1.5-.36,2.27-1.53,31.2,25,57.75,59.27,59.41s58.78-21.85,64.78-53.32a10.29,10.29,0,0,0-.17-2.33c278.47-4.89,255.18-97.77,255.18-97.77C562.28,1528.13,773.36,1205.44,534.85,1145.83Z" fill="#bc6932"/><path d="M765.29,1613.08c-204.12-61.12-.63-441.32-245.1-483.41a212.82,212.82,0,0,0,4.28-32.52c2.76-56.61-16.37-103.63-42.67-104.87s-49.95,43.61-52.72,100.21a210.54,210.54,0,0,0,1.11,32.76c-247.42,18.06-82,416.31-291,457.24,0,0-3.41,77.42,247,100.74-.07.81-.33,1.52-.38,2.31-1.5,31.19,25,57.73,59.26,59.4s63.27-22.17,64.79-53.35a20.79,20.79,0,0,0-.17-2.34C761.08,1690.46,765.29,1613.08,765.29,1613.08Z" fill="#d88041"/><path d="M691.83,1641.74c-53.49,27.89-112.8,22.83-147.54,24.26-11,.41-13.35,7.29-4.39,8.83,97.2,16.79,165.32-19.81,200-45.43C747.28,1623.89,739.82,1616.76,691.83,1641.74Z" fill="#bc6932"/><path d="M473.28,1160.16c-24.26-1.35-145.75-8.23-152.37,156-6.07,150.34-57.31,262.35-102.84,278.87-15.87,5.76,204.61,41.51,255.34,44.42,60.5,3.48,238.57-14.46,211.5-25.69-74.93-31.06-67.33-233.18-67.43-294.46S589.69,1166.66,473.28,1160.16Z" fill="#ed1c24"/><path d="M423.33,1137.82c-41.76-.85-121.83,56.55-110.1,97.7,2.26,7.91,13.9-26.63,18.75-36.19,20.6-40.35,67.7-48.47,92.18-53.47C431.93,1144.27,430.53,1138,423.33,1137.82Z" fill="#edc5a7"/><path d="M468.52,1185.5c-27-.54-55.6,11-75.72,27.36-11,9-20.79,25.23-28,37.6-3,5.11-13.86,28.77-5.76,33.81,2.82,1.76,13.26-25.94,14.24-28.33,6.19-15.12,15.37-27.93,28.69-37.63s28.74-15.59,44.48-19.7c6.48-1.69,13-3.06,19.59-4.39,5.86-1.18,13.61-8.5,2.49-8.72C426.75,1184.66,475.71,1185.64,468.52,1185.5Z" fill="#f9b399"/><path d="M498.15,1160.19a11.36,11.36,0,0,0,1.45-3.22c6.55-24.72,13.79-50.45,12.41-76.25-.87-16-15.26-48-36.51-33.8-17,11.4-14.05,41.76-13.35,59.2a416.54,416.54,0,0,0,5.07,52.51c-34-.35-66.27,6.45-92,29.87-51.29,46.62-56.35,123.94-66.76,188.18-5.9,36.51-8,73.72-20.52,108.7-15.15,42.27-37.23,85.24-73.75,112.49-9.15,6.83-.38,14.87,8.32,18.29,32.6,12.73,132,33,206.63,39.79a78.43,78.43,0,0,0-8.29,17.07c-6.41,19.29.29,44.82,16.78,57.22,14.53,11,37.13,9.37,44.78-9.2,6.81-16.51-3.89-31-21-31.8-13.91-.72-15,20.86-1,21.57,2.78.17,4,.1,1.3,3.24-5.59,6.37-13.56-3.2-16.32-7.37-7.19-10.83-6.14-24.16-.63-35.41a107.44,107.44,0,0,1,8.1-13.48c3.6.24,7.1.44,10.45.63,78.68,3.84,204.34-1.88,241.8-22.48,9.37-5.16,15.16-16.42,3.54-21.35-28.17-11.87-48.21-42.41-56.42-71.25-12.07-42.28-12.52-86.82-11.23-130.36a510,510,0,0,0-11-124.27c-7.75-35.88-19.39-67.77-44.51-95.2C564,1170.24,529.88,1162.92,498.15,1160.19Zm-12.64-90.45c.24-.87.49-1.72.79-2.53.2.23.43.45.71.73,5.69,6.19,3.71,20.34,3.2,27.78-.81,11.59-3.12,23-5.88,34.26C481.73,1109.45,481.06,1088.06,485.51,1069.74ZM348.6,1277.35q10.11,3.15,20.13,5.91a11.49,11.49,0,0,0-.6,1.46C363.44,1300.15,356,1312,342,1320.51c0,0,0,.07-.09.08-.78-.23-1.54-.42-2.32-.64C342,1305.63,344.82,1291.28,348.6,1277.35Zm160.21,64.47a11.58,11.58,0,0,0-2,3.24q-13.26.09-26.34-.53c8.9-12.64,15.26-26.59,21-41.26q14.25,0,28.77-1.1C525.41,1316.59,519,1330.35,508.81,1341.82Zm44.85-42.11q16.11-2.19,32.73-5.74c-4.36,16.6-14.31,31.11-22.74,45.9a11.81,11.81,0,0,0-.72,1.59c-9.79,1.2-19.49,2.12-29.09,2.7C542.83,1330.63,549,1315.68,553.66,1299.71Zm-99,42.42c-.14.15-.21.29-.33.42q-17.17-1.74-34.29-4.55a151.72,151.72,0,0,0,26.45-38.37c10.58,1.4,21.24,2.43,32,3C472.59,1317,465.7,1330.69,454.69,1342.13Zm-61.1-9q-12.88-2.64-25.8-5.79c9.75-9.74,16.55-21.56,20.87-35.81a10.53,10.53,0,0,0,.47-2.83c11.66,2.86,23.26,5.37,34.89,7.47A127.67,127.67,0,0,1,393.59,1333.09Zm72.2,306.81q-12.23-.5-24.43-1.35c-65.61-4.47-131.7-16.12-200.18-35.11,24.45-22.57,40.67-51.49,55.27-81.74a297.39,297.39,0,0,0,13.75-33.31c6.45,1.72,12.91,3.42,19.32,5-4.51,3-7.55,8.13-8,15.82-.65,11.06,8.38,21.81,19.68,22.64,15.38,1.15,20.8-9.56,21.34-20.63a19.44,19.44,0,0,0-2.63-10.76c15,3.17,29.87,6,44.8,8.27-3.29,3.09-5.43,7.69-5.81,14-.63,11,8.4,21.83,19.71,22.69,15.39,1.11,20.8-9.63,21.32-20.7a19.44,19.44,0,0,0-3.35-11.94q16.25,1.7,32.62,2.5c3.22.15,6.45.3,9.69.42a22.39,22.39,0,0,0-3.1,10.78c-.65,11,8.37,21.85,19.7,22.69,15.36,1.12,20.79-9.65,21.32-20.67a19.66,19.66,0,0,0-4-12.8c15.27-.46,30.75-1.51,46.5-3.29a23.52,23.52,0,0,0-2.15,9c-.66,11.07,8.39,21.85,19.7,22.66,15.36,1.13,24.08-13.25,24.62-24.28.28-5.5-2.54-9.65-6.85-12.52Q608,1505,621.6,1502c6,47.35,22,94.9,59.37,121.52C607.88,1637.32,537,1642.85,465.79,1639.9Zm153.8-158.42c-110.1,24.8-203.4,13.94-303.6-12.67a189.39,189.39,0,0,0,4.55-25c.37-3.36.75-6.71,1.17-10.07a10.84,10.84,0,0,0,6.62-4.13c9.9-12.7,16.1-15.8,27.32-3.45,6.14,6.69,9.85,13.44,18.66,16.81,13.74,5.24,25.68-9.85,34.26-17.82,14.77-13.77,23.29,7.2,34.39,15.52,14.21,10.65,32.72,6.08,42.69-8.44,2.57-3.72,4.81-7.66,7.27-11.47,4.84-7.5,11.54.82,15,4.55,7.22,7.81,16.17,14.61,26.34,17.74,8.38,2.59,18-1.12,24.48-6.49,4.6-3.83,17.75-21.66,24.26-20.27,11.48,2.46,19.58,19.24,29.5,25.28a18.5,18.5,0,0,0,6,2.44C618.43,1456,618.69,1468.58,619.59,1481.48ZM619,1414a10,10,0,0,0-2.43,2.8,28,28,0,0,0-2-2.08A124.09,124.09,0,0,0,598.38,1400c-14.36-10.48-29.41-2.92-40.9,7.81-10.28,9.63-15.59,18-29.26,7-8.12-6.54-12.92-14.47-23-18.28-21.55-8.13-28.79,16.43-40.72,26.57-8.89,7.52-26-19.71-35.41-23.09-15.57-5.67-28.25,2.35-39.17,13-2.58,2.52-5.14,5.06-7.88,7.47-3.1,2.68-2.18,1.18-4.53-1.66-6.55-7.86-12.52-15.73-21.84-20.45-11-5.6-21-2.76-29.53,3.34,2.5-16.37,5.29-32.74,8.05-49,.71-4.18,1.4-8.36,2.07-12.6,48.42,13.37,95.29,22.59,143.58,24.94,44,2.15,89.2-1.46,137.79-12.61C619.1,1372.94,619.24,1393.36,619,1414Zm-7.17-105.7c1.54,7.91,2.78,15.84,3.75,23.7-8.57,2-17,3.79-25.39,5.29,7.64-13,14.93-26.36,17.8-41.13a11.33,11.33,0,0,0-.91-7.18c.22-.09.44-.12.68-.21C609.23,1295.28,610.56,1301.81,611.83,1308.31Zm-9.08-39c-89.8,23.62-166.32,13.76-248-11.21.4-1.12.81-2.27,1.24-3.39,12.83-33.31,38.49-63.29,74.15-70.93,23.65-5.12,48.24-3.82,72.08-1.13,22,2.51,47.79,7.13,64.65,22.91C585.52,1223,595.83,1245.45,602.75,1269.26Z" fill="#a7a9ac" style="mix-blend-mode:multiply"/><path d="M494.38,1043.72c-41.61-53.84-36.21,94.16-34.19,106.15-175.28-1.87-139,214.52-179.3,326.72-14.07,39.18-100,120.7-52.24,135.28,62.2,19,128.8,29.41,193.43,35.28-16.28,25.84-14.05,76.23,24.85,80.92,57.49,6.94,12.64-69.57-2.15-42.5-6.14,11.25,12,17.16,9.8,19.65-15.47,17.84-18.05-42.9-8.85-56.2a971.4,971.4,0,0,0,182.91-5c22.67-2.83,48.91-5.57,69.36-16.81,25-13.76-35.87-53.18-44.58-71-60-122.75,43.69-387.18-162.29-404.75C491.72,1150.5,513.8,1068.85,494.38,1043.72ZM478.5,1061a16.3,16.3,0,0,1,.79-2.54c11.11,14.08.89,51-2,62.77-2.59-20.54-3.24-41.93,1.2-60.23C478.7,1060.1,474.06,1079.28,478.5,1061Zm-116.8,213.5c-8.32,17.55-9.12,26.58-26.73,37.25a.35.35,0,0,1-.11.09c-.76-.23-1.55-.45-2.31-.65,2.46-14.32,5.24-28.67,9-42.59Q351.69,1271.69,361.7,1274.48ZM501.8,1333a11.3,11.3,0,0,0-2,3.28q-13.26.07-26.34-.56c8.92-12.66,15.26-26.58,21-41.25,9.5,0,19.08-.36,28.78-1.09-4.82,14.38-11.18,28.14-21.4,39.62Zm77.57-47.83c-5.52,20.91-16,27.67-23.44,47.47q-14.71,1.82-29.1,2.72c9-13.52,19.8-44.46,19.8-44.46S568.28,1287.57,579.37,1285.2Zm-131.7,48.16c-.13.13-.21.3-.32.42q-17.21-1.72-34.29-4.56a151.87,151.87,0,0,0,26.44-38.36c10.59,1.38,21.23,2.42,31.95,3-5.88,14.37-12.77,28-23.78,39.49Zm-86.93-14.84c8.62-8.57,20.84-26,21.38-38.63,11.65,2.84,23.26,5.37,34.87,7.47a127.35,127.35,0,0,1-30.43,37Q373.71,1321.65,360.74,1318.52Zm98,312.64c-76.06-3.42-151.26-16.18-224.6-36.51,32.49-30,54.83-73.62,69-115.06q9.71,2.64,19.31,5c-45.82,30.42,60.21,58.36,30.42,7.09,15,3.19,29.88,6,44.79,8.26-38.59,36.3,63.07,50.57,31.91,4.13q21.09,2.25,42.28,2.88c-26.22,42,63.76,39.66,34,0,15.27-.48,30.74-1.54,46.48-3.31-25.32,52.89,75.39,21.75,35.35-5.12q13.31-2.36,26.89-5.35c6,47.36,22,94.9,59.37,121.54-73.11,13.8-144,19.32-215.19,16.43C450.63,1630.79,530,1634.05,458.77,1631.16ZM309,1460a268.91,268.91,0,0,0,5.72-35.07c15.88-2.93,15.53-27.82,33.95-7.58,10.21,11.17,19.74,25.67,37.73,12.87,14.52-10.34,22.56-27.38,39-9.13,14.55,16.14,37.5,25.25,53.28,2.33,22.49-32.65,29.84,20.06,61.55,10.58,10.49-3.13,25.77-28.69,35.76-26.5,15.74,3.37,20,24.74,35.57,27.71-.12,12,.14,24.59,1,37.49C502.46,1497.5,409.16,1486.65,309,1460Zm303-54.77a9.68,9.68,0,0,0-2.43,2.79c-31.26-36-41-11.67-72.45,2.28-26.84,11.93-37.42-50.64-68.59-9.14-26.68,35.53-33.23-23.59-67.8-9.49-.53.22-25.9,23.7-30.24,18.45-13.82-16.59-30.53-32.08-51.37-17.11,3.13-20.59,6.77-41.09,10.11-61.65,92.7,25.61,187,34,281.36,12.32,1.5,20.45,1.65,40.88,1.41,61.55C611,1406,612.22,1384.57,612,1405.24Zm-7.18-105.75q2.31,11.91,3.77,23.75c-8.57,2-17,3.8-25.4,5.31,6-10.23,23.32-35.17,16.88-48.36l.69-.17c1.46,6.47,2.79,13,4.06,19.47C606.34,1307.43,603.53,1293,604.8,1299.49Zm-257.12-50.21c40.76-115.06,215.53-100.42,248.06,11.2C595.74,1260.48,449.27,1290.31,347.68,1249.28Z" fill="#fff"/><path d="M583.4,1515.71c-8.17,8.85-15.87,5.62-21.82,1-1.9-1.53-1.78,2.07-.07,4.29,9.82,12.66,25.93,12.26,26.75-9.5C588.41,1507.43,585.43,1513.53,583.4,1515.71Z" fill="#e6e7e8"/><path d="M500.06,1523c-8.19,8.87-15.86,5.64-21.83.94-1.89-1.49-1.78,2.1-.05,4.27,9.84,12.71,25.95,12.3,26.77-9.46C505.1,1514.7,502.11,1520.8,500.06,1523Z" fill="#e6e7e8"/><path d="M423.23,1517.81c-9.36,7.6-16.5,3.34-21.74-2.18-1.66-1.72-2.06,1.83-.69,4.23,8,14,24,15.84,27.85-5.59C429.36,1510.31,425.54,1515.92,423.23,1517.81Z" fill="#e6e7e8"/><path d="M343.85,1504.9c-10,6.72-16.75,1.81-21.48-4.09-1.5-1.89-2.2,1.59-1.05,4.14,6.67,14.63,22.45,17.9,28.23-3.08C350.62,1498,346.31,1503.24,343.85,1504.9Z" fill="#e6e7e8"/><ellipse cx="480.18" cy="1017.65" rx="11.37" ry="3.67" fill="#a7a9ac" style="mix-blend-mode:multiply"/><path d="M472.35,0h14V1016.26h0a15.43,15.43,0,0,1-12.53.57l-1.47-.57Z" fill="#ed1c24"/><rect x="472.35" y="1.65" width="4" height="1016.24" fill="#a7a9ac" style="mix-blend-mode:multiply"/><rect x="486.35" y="993.76" width="4" height="25" fill="#a7a9ac" style="mix-blend-mode:multiply"/></g></svg>