<svg xmlns="http://www.w3.org/2000/svg" xmlns:xlink="http://www.w3.org/1999/xlink" viewBox="0 0 966.93 1860.73"><defs><linearGradient id="a" x1="154.73" y1="1346.97" x2="722.39" y2="1346.97" gradientUnits="userSpaceOnUse"><stop offset="0" stop-color="#98d2cc"/><stop offset="1" stop-color="#7ec9c2"/></linearGradient><linearGradient id="b" x1="434.85" y1="488.5" x2="448.85" y2="488.5" xlink:href="#a"/></defs><g style="isolation:isolate"><rect x="447" y="17.29" width="16.85" height="970.92" fill="#ebebec" style="mix-blend-mode:multiply"/><path d="M371.86,1245.76C348,1216.34,347.71,1133.53,369,1093.1c25.26-48.52,89-70.37,140-70.66,52.4-.3,111.81,50.42,122.86,102.77,5.51,24.15,7.71,56.56,3.82,80.77-6.54,32.28-28.29,48.36-50.48,73.86-4.75,5.45-9.52,9.12-10,16.17,51-11,100.3-55.49,151.29-67.87,29.53-6.89,58.66,6.38,76.27,31.82,13.56,21.42,20.55,40.86,10,66.46-10.59,26.93-34.36,42.52-61.17,53.42-25.48,9.55-49.62,17.75-75.08,30-22.78,12.22-55,21.82-58.86,46-3.9,22.86,4.66,53.38,12.85,76.18,8.2,24.14,22.79,48.58,35,71.36,17.63,29.46,32.72,54.23,62,39.95,21.74-10.58,59.11-1.67,74,25.12,10.86,20.09,7,57.74-10.33,74S738,1778.16,716.57,1789s-43.7,23.43-67.92,19.53C590.81,1796.8,564,1714.31,532,1669.65c-16.11-22.5-33.58-56.25-57.55-19.84-14.66,22.93-31.92,58.14-43.88,82.38-25.25,49.87-62.81,90-118,74.24-44.41-13.18-139.45-67.23-116.91-121.11,13.25-32.32,43.07-53.21,72.65-43.41,38.87,12.88,42.56-19.05,58.52-47.36,13.3-24.27,29.28-48.38,42.59-72.64,13.28-26.94,19.49-58.06-3.49-82.11-20.27-20-61.63-27.87-85.9-42.51-25.61-14.64-56.71-18.49-78.31-37.19-25.66-21.35-29.69-52.06-19.12-83,10.57-32.31,28-38,61.58-42.17,25.51-2.83,47.73,6.79,73.31,14.7,25.58,9.27,122,57.82,102.55,46.28C412.43,1291.39,371.86,1245.76,371.86,1245.76Z" fill="#ebebec" style="mix-blend-mode:multiply"/><path d="M331.77,1181.49c-23.85-29.43-24.15-112.24-2.88-152.67,25.26-48.51,89-70.38,140-70.66,52.4-.3,111.81,50.43,122.85,102.77,5.51,24.15,7.71,56.56,3.82,80.77-6.54,32.28-28.28,48.36-50.48,73.85-4.75,5.46-9.52,9.13-10,16.18,51-11,100.3-55.49,151.28-67.87,29.53-6.88,58.66,6.38,76.28,31.82,13.56,21.42,20.55,40.86,9.94,66.45-10.59,26.94-34.36,42.53-61.17,53.43-25.48,9.55-49.62,17.75-75.08,30-22.78,12.23-55,21.82-58.86,46-3.91,22.86,4.67,53.38,12.86,76.18,8.2,24.14,22.78,48.58,35,71.35,17.64,29.47,32.72,54.24,62,40,21.74-10.6,59.12-1.68,74.05,25.11,10.86,20.09,7,57.74-10.33,74s-53.22,35.74-74.66,46.61-43.7,23.43-67.91,19.54c-57.84-11.77-84.68-94.26-116.68-138.93-16.12-22.49-33.58-56.24-57.56-19.82-14.65,22.92-31.92,58.13-43.88,82.37-25.24,49.87-62.81,90.06-118,74.24C228,1729,133,1674.92,155.54,1621c13.25-32.32,43.07-53.21,72.65-43.41,38.87,12.88,42.56-19.05,58.53-47.36C300,1506,316,1481.9,329.3,1457.63c13.28-27,19.49-58.05-3.48-82.11-20.28-20-61.64-27.87-85.91-42.51-25.62-14.64-56.71-18.49-78.31-37.19-25.66-21.35-29.69-52.06-19.12-83,10.57-32.31,28-38,61.58-42.18,25.51-2.82,47.73,6.79,73.31,14.71,25.59,9.26,122,57.82,102.56,46.29C372.34,1227.11,331.77,1181.49,331.77,1181.49Z" fill="#bc6932"/><path d="M312.83,1174C289,1144.6,288.68,1061.8,310,1021.37c25.26-48.52,89-70.38,140-70.67,52.4-.29,111.81,50.43,122.86,102.78,5.51,24.15,7.71,56.55,3.82,80.76-6.55,32.29-28.29,48.37-50.48,73.86-4.75,5.46-9.52,9.12-10,16.18,51-11,100.3-55.49,151.29-67.87,29.53-6.89,58.66,6.38,76.27,31.81,13.55,21.43,20.55,40.87,10,66.46-10.6,26.93-34.36,42.53-61.18,53.43-25.47,9.55-49.61,17.75-75.07,30-22.78,12.22-55,21.81-58.87,46-3.9,22.87,4.67,53.38,12.86,76.18,8.2,24.14,22.78,48.59,35,71.36,17.63,29.46,32.72,54.24,62,40,21.75-10.59,59.12-1.67,74,25.11,10.87,20.1,7.05,57.75-10.33,74s-53.21,35.74-74.65,46.6-43.7,23.43-67.92,19.54c-57.84-11.76-84.68-94.25-116.68-138.92-16.11-22.5-33.58-56.25-57.55-19.83-14.66,22.93-31.92,58.13-43.88,82.38-25.25,49.86-62.81,90-118,74.24-44.41-13.19-139.45-67.23-116.91-121.12,13.25-32.31,43.07-53.21,72.65-43.41,38.87,12.89,42.56-19.05,58.52-47.35,13.3-24.27,29.28-48.38,42.58-72.64,13.29-27,19.5-58.06-3.48-82.11-20.27-20-61.64-27.87-85.9-42.52-25.62-14.63-56.71-18.49-78.32-37.18-25.65-21.35-29.68-52.07-19.11-83,10.56-32.32,28-38,61.57-42.18,25.52-2.83,47.74,6.79,73.32,14.71,25.58,9.26,122,57.81,102.55,46.28C353.4,1219.66,312.83,1174,312.83,1174Z" fill="#d88041"/><path d="M686.47,1588.83c-11.82,0-23.64,5.55-33.79,10.78a5.91,5.91,0,0,1-2.69.56c-6.15,0-14.69-5-23.87-12.67-4.09-3.42-8.3-7.36-12.49-11.63-14.22-14.46-28.14-32.65-35.82-46.67-9.94-20.41-24.86-58.22-31.43-79.67-6.24-19.22-9.47-59.9-6.27-79.22,2.6-16.6,30.28-32.31,46.82-41.69l.67-.39c13.18-6.67,25.62-11,38.79-15.54,7.33-2.54,14.91-5.16,22.74-8.25l.28-.12c2.35-1,4.81-1.93,7.32-2.83,2.89-1,5.87-2,8.95-3.08a190.29,190.29,0,0,0,21.91-8.36c12.06-5.79,22.81-14.09,28.24-28.62,9.82-25,8.51-30.65-3.24-51l-1.26-2.18-.23-.37c-8.27-13.11-28.63-17.81-44.93-17.85a85.16,85.16,0,0,0-20.38,2.36c-2.41.61-4.94,1.34-7.57,2.16-6.83,2.14-14.37,5-22.31,8.19-14.15,5.76-29.61,12.83-44.77,19.78-27.63,12.65-58.69,26.88-73.58,28.73-8.24-10.56-12.45-23.55,7.17-46.7a233.52,233.52,0,0,1,16.48-17.06c13.85-13.37,28.18-27.2,32.86-51.16l.06-.39,1-6c2.94-18.2,4.71-29.18.31-50.79-9.77-52-55.92-92.86-105.07-93-35.84-.08-86.58,6.1-113.31,60.41-20.54,41.33-20.32,85.75.57,115.94,5,7.25,12.53,13.54,20.47,20.22,20.2,17,39.27,33,28.76,66-.42,1.34-1.42,4.47-11,4.45h0c-20.93,0-56.67-16-75.88-24.5-5-2.21-9.31-4.14-12.49-5.4a3.7,3.7,0,0,0-.5-.19c-8.29-2.85-16.74-7.93-25.68-13.3-2.85-1.71-5.73-3.43-8.64-5.11a127.24,127.24,0,0,0-18.72-9.12,64.6,64.6,0,0,0-12.18-3.37c-8.8-1.44-16-2.4-22.46-2.42-23.55,0-32.74,14-39.27,34.91-10.63,32.73-5.17,39.46,17.37,60l.95.86a63.16,63.16,0,0,0,9.65,7.48c7.76,4.94,16.41,8.38,25.14,11.41,2.78,1,5.59,1.92,8.37,2.84,10.64,3.54,20.69,6.87,28.63,11.85,9.66,6.4,23.14,11,37.42,15.85,16.72,5.7,35.69,12.15,43.5,20.62,17,19.52,25,59.49,15.87,79.39-5.75,11.11-11.86,23.93-17.77,36.32s-11.9,25-17.44,35.66c-3,5.65-6.36,13.39-10.24,22.35-5.65,13-14.87,34.28-24.78,49.61-6.95,10.77-14.24,18.61-20.86,18.6a8.5,8.5,0,0,1-2.89-.54c-2.77-1-5.49-1.91-8.17-2.7a89.73,89.73,0,0,0-25-4c-21.79,0-38.05,10.88-45.75,30.72-5.73,14.43-5.84,27.35-.34,38.39,11,22.11,41.35,30.46,68.12,37.84,6.85,1.89,13.33,3.67,19.22,5.61A63.21,63.21,0,0,0,279.9,1706c32.64.08,53.51-27.47,70.42-59,3.31-6.17,6.47-12.49,9.53-18.79,1.77-3.62,3.5-7.25,5.21-10.82l.51-1.07c7.56-16.19,23.81-42.48,36.87-63.6,4-6.54,7.74-12.52,10.65-17.34,4.78-7.7,11.65-11.6,20.4-11.58,17.37,0,37.16,14.69,46,34.07,3.27,7.15,6.63,15.11,10.19,23.55,6.05,14.37,12.59,29.87,20.12,44.8,2.43,4.81,5,9.57,7.63,14.21,14.78,25.84,33.3,48,58.6,56.71a116.26,116.26,0,0,1,11.54,4.8c6.44,3,12.53,5.8,20.25,5.81,6.14,0,12.29-1.75,19.35-5.53,4-2.15,9.35-4.83,15.51-7.92,22.65-11.35,50.83-25.48,63.4-38,17.91-17.75,17.92-28.89,11.48-44.44C709.69,1592.87,696.31,1588.85,686.47,1588.83Z" fill="url(#a)"/><path d="M451.52,975.88c9.58-.69,8.88-8.49.25-9.79-50-7.49-135.8,28.92-128.11,80.2,1.48,9.85,10.46-10.8,17.81-21.54C372.47,979.5,421.33,978.08,451.52,975.88Z" fill="#edc5a7"/><path d="M718.93,1662.08c-3.21,5-5,14,11.23-.72,30.49-27.76,13.4-87.84-42.13-84.42-10.66.66,29.4,8.09,34.6,18.79C745.72,1643.26,729,1646.3,718.93,1662.08Z" fill="#bc6932"/><g style="mix-blend-mode:multiply"><path d="M449.21,1198h0c20.59-.35,39.41-14,49.13-35.72,2.28-5.07.83-11.4-3.3-14.4a8.19,8.19,0,0,0-4.9-1.61,9.08,9.08,0,0,0-8.07,5.74c-6.6,14.7-19.3,24-33.17,24.22h-.54c-13.52.07-25.51-8.68-32.88-24a9.1,9.1,0,0,0-8.08-5.5,8.28,8.28,0,0,0-5,1.77c-4.06,3.14-5.33,9.52-2.91,14.51,10.74,22.35,28.67,35.11,49.19,35Z" fill="#a7a9ac"/><path d="M695.78,1595.34c-11.82.06-23.59,5.74-33.7,11a5.66,5.66,0,0,1-2.69.58c-6.14,0-14.72-4.89-24-12.48-4.12-3.38-8.36-7.28-12.59-11.52-14.33-14.35-28.4-32.43-36.18-46.38-10.1-20.34-25.33-58-32.07-79.42-6.39-19.18-9.94-59.83-6.89-79.18,2.47-16.61,30-32.54,46.48-42.06l.67-.39c13.13-6.78,25.53-11.18,38.67-15.84,7.3-2.6,14.86-5.28,22.67-8.43l.28-.12c2.34-1,4.79-2,7.3-2.89,2.88-1.07,5.85-2.1,8.92-3.16a190.76,190.76,0,0,0,21.85-8.53c12-5.88,22.69-14.27,28-28.84,9.63-25.1,8.28-30.71-3.64-51l-1.28-2.17-.22-.36c-8.38-13-28.78-17.59-45.08-17.5a85.56,85.56,0,0,0-20.36,2.53c-2.4.62-4.93,1.37-7.55,2.21-6.82,2.2-14.32,5.07-22.25,8.37-14.09,5.87-29.5,13.07-44.61,20.13-27.53,12.87-58.47,27.34-73.35,29.32-8.33-10.49-12.64-23.45,6.81-46.76a234.52,234.52,0,0,1,16.34-17.18c13.74-13.49,28-27.44,32.44-51.43,0-.13.05-.26.07-.39l.9-6c2.79-18.23,4.48-29.22-.09-50.8-10.19-51.94-56.66-92.4-105.81-92.13-35.84.2-86.53,6.78-112.82,61.31-20.22,41.48-19.65,85.91,1.49,115.92,5.07,7.21,12.63,13.45,20.62,20.06,20.33,16.8,39.53,32.67,29.29,65.74-.42,1.34-1.39,4.49-11,4.54h0c-20.93.12-56.81-15.5-76.07-23.89-5-2.18-9.35-4.07-12.54-5.32l-.5-.17c-8.31-2.79-16.8-7.79-25.79-13.1-2.87-1.69-5.76-3.38-8.68-5a126.13,126.13,0,0,0-18.79-9,64.63,64.63,0,0,0-12.21-3.28c-8.81-1.37-16-2.27-22.47-2.23-23.55.13-32.64,14.22-39,35.21-10.36,32.82-4.85,39.5,17.86,59.87l.94.86a63.65,63.65,0,0,0,9.72,7.4c7.79,4.88,16.47,8.24,25.22,11.22,2.8.94,5.61,1.86,8.4,2.77,10.66,3.45,20.74,6.7,28.72,11.62,9.71,6.33,23.23,10.81,37.54,15.55,16.77,5.57,35.79,11.87,43.67,20.27,17.16,19.39,25.44,59.3,16.5,79.27-5.67,11.15-11.68,24-17.49,36.46s-11.71,25.06-17.15,35.79c-3,5.67-6.26,13.44-10.07,22.43-5.54,13.06-14.59,34.4-24.37,49.81-6.87,10.83-14.11,18.73-20.72,18.77a8.4,8.4,0,0,1-2.89-.53c-2.79-1-5.52-1.86-8.21-2.63a90,90,0,0,0-25-3.8c-21.79.13-38,11.19-45.51,31.09-5.61,14.48-5.62,27.39,0,38.39,11.19,22,41.6,30.13,68.43,37.3,6.86,1.84,13.35,3.57,19.26,5.46a63.12,63.12,0,0,0,19,3c32.65-.19,53.29-27.89,70-59.58,3.26-6.2,6.36-12.54,9.38-18.87,1.73-3.64,3.43-7.27,5.12-10.86l.5-1.07c7.43-16.26,23.47-42.68,36.36-63.9,4-6.58,7.65-12.58,10.51-17.42,4.73-7.74,11.56-11.7,20.31-11.74,17.38-.1,37.28,14.39,46.29,33.7,3.32,7.12,6.74,15.06,10.36,23.46,6.17,14.33,12.84,29.78,20.49,44.65,2.46,4.8,5,9.53,7.73,14.15,15,25.72,33.68,47.77,59.06,56.24a114.25,114.25,0,0,1,11.57,4.72c6.47,2.92,12.58,5.69,20.3,5.64,6.14,0,12.27-1.84,19.3-5.68,4-2.19,9.31-4.91,15.46-8.05,22.54-11.53,50.61-25.88,63.09-38.45,17.77-17.9,17.68-29,11.12-44.52C719,1599.19,705.62,1595.28,695.78,1595.34Zm-38.56-375.59a65.26,65.26,0,0,1,15.22-1.86c14.88-.08,24.86,4.47,27.06,7.65l1.15,2c8.87,15.06,8.87,15.06,2.06,32.82-3.24,8.88-10.49,14.14-19.78,18.32.45-4-.28-7.35-2.17-11.85-2.57-6.13-9.7-8.13-15.54-9.24-9-1.71,1.39-19.6-4.25-26.75-1.16-1.47-7.25-5.25-12.53-8.36C651.54,1221.38,654.5,1220.46,657.22,1219.75ZM182.91,1263c-1.15-3.31-.15-9.06,3.72-21.3,6.13-20.24,11.21-20.27,18.89-20.31,5.36,0,12.34.93,19.09,2a55.68,55.68,0,0,1,15.64,5.39l-.75.21c-4.94,1.36-11.7,3.22-15.55,9.85-4.68,8-1.24,15.85.81,20.53.77,1.74,1.8,4,1.81,5.13a26.61,26.61,0,0,1-4.46.8c-4.93.65-13.18,1.73-17.33,9.29a20,20,0,0,0-2.5,8.27c-1-.74-1.9-1.49-2.78-2.31l-1.11-1C189.86,1271.87,184.23,1266.81,182.91,1263ZM290,1694.56a41.79,41.79,0,0,1-12.49-2c-6.29-2-13-3.82-20.15-5.72-22.55-6-48.11-12.85-55-26.43-2.79-5.49-2.49-12.41.93-21.23,4.5-11.86,12.72-17.42,25.86-17.49,7.49,0,16.23,1.7,26,5.18a29.52,29.52,0,0,0,10.15,1.76c8.57,0,16.26-3.77,23.22-9.92a23.3,23.3,0,0,0,.3,2.46c1.46,8.11,10.14,14,18.22,13.38a57.51,57.51,0,0,0,12.59-2.47c5.85-1.8,7.6,14.51,9.75,18.48a13.83,13.83,0,0,0,6.28,6C323.18,1677.91,308.65,1694.45,290,1694.56Zm228.36-113.48c-3.69-8.56-7.17-16.63-10.63-24-12.47-26.76-40.06-46.07-65.59-45.92-16.11.09-29.7,7.86-38.33,22-2.9,4.89-6.51,10.83-10.46,17.33-13.18,21.69-29.58,48.7-37.48,66l-.45,1c-2.83,6-5.72,12.19-8.71,18.27-.16-.66-.32-1.42-.49-2.31-1.32-7-3.16-12-8.35-16.94-6.14-5.81-16.66-3.17-23.59-1S309,1605,308.2,1601.21a14.14,14.14,0,0,0-2.09-4.71c9.07-15,16.73-33,23.64-49.32,3.63-8.57,6.77-16,9.4-21,5.67-11.16,11.68-24.06,17.52-36.53s11.75-25.16,17.28-36l.19-.4c13.78-30.17.89-78.88-20-102.5-11.77-12.55-32.56-19.45-52.66-26.11-13-4.3-25.23-8.37-32.87-13.34-10.37-6.39-22.15-10.21-33.54-13.89-3.8-1.22-7.51-2.44-11.12-3.72-.69-1.63-1.45-3.09-2.11-4.34-2.21-4.17-2.32-5-1.9-5.94a40.12,40.12,0,0,1,4.5-.76c5.39-.71,14.39-1.9,18.22-11,3.26-7.75.31-14.47-1.86-19.39a25.64,25.64,0,0,1-1.76-4.6c.54-.59,3.63-1.43,5.12-1.84,4.07-1.11,9.72-2.68,13.91-7.13,9.07,5.34,18.43,10.76,28.31,14.1,2.81,1.11,6.88,2.88,11.56,4.92,22.16,9.65,59.24,25.79,84.64,25.65h0c21.85-.12,28.87-12.23,31.1-19.44,14.44-46.62-15.93-71.72-36-88.33-6.87-5.67-13.36-11-16.8-15.92-16.44-23.36-16.35-60.44.25-94.51,16.33-33.86,45.29-49.09,93.89-49.37,39.32-.22,76.62,32.74,84.94,75.19,3.8,18,2.59,25.92-.08,43.37l-.89,5.84c-3.3,17.33-13.51,27.35-26.43,40A251.7,251.7,0,0,0,494.74,1199c-23.77,28.5-24.8,54.07-3.15,78.14a10.57,10.57,0,0,0,7,3.48c.86.07,1.78.1,2.71.09,18-.1,49.13-14.66,85.2-31.53,12.64-5.91,25.48-11.91,37.39-17.06a16.55,16.55,0,0,0,2,1.57,37.9,37.9,0,0,0,9.45,4.58c8.72,2.92,5,9.49,3.28,15.78-2.71,9.92,5,17.67,13.46,20.5,3.1,1,12.45-.16,8.78,7.69-.77,1.68-1.75,3.55-2.52,5.5-3.43,1.23-6.87,2.53-10.21,4-7.34,3-14.63,5.55-21.69,8.06-13.29,4.71-27,9.6-41.53,17.11-.15.07-.29.15-.43.23l-.89.51c-21,12.17-52.85,30.57-56.81,57.19-3.55,22.57.28,66.69,7.69,88.91,7.09,22.53,22.68,61.09,33.35,82.53a2.82,2.82,0,0,0,.23.42c4.08,7.37,14.25,22.35,27.24,37.49a21.29,21.29,0,0,0-2.9,1.73c-6.9,4.87-7,13-7.12,18.33,0,1.88-.09,5.35-.71,6.14-1.34.76-3.69.11-7.41-1-5.27-1.63-13.23-4.11-20.58,1.36-6.1,4.56-7.17,11.63-8,16.81-.68,4.33-1.18,6.63-2.53,7.68a10.41,10.41,0,0,1-2.26-.45C534.09,1617.52,525.85,1598.4,518.39,1581.08Zm182.53,66.68c-10.1,10.17-38.75,24.82-57.71,34.51-6.29,3.22-11.71,6-16,8.32-3.77,2.07-6.8,3.08-9.26,3.1-3,0-6-1.29-11.45-3.77a134.33,134.33,0,0,0-13.61-5.51c-15.81-5.28-28.94-18.53-40.2-35.22.39-.2.78-.34,1.18-.58,7.89-4.8,9.14-12.89,10.07-18.78.43-2.79.92-6,1.92-6.7s3.22,0,6.64,1c5.22,1.64,12.39,3.85,19.67-.25,8.39-4.73,8.54-13.58,8.63-19.45,0-1.92.08-5.16.55-5.88,1.82-1.3,3.11-1.22,7.83.58,16.13,16,34.39,29.09,50.31,29a26.75,26.75,0,0,0,12.41-3c8.48-4.45,17.25-8.58,24-8.61,2.61,0,7.46,0,11.66,9.89C711.08,1634.7,711.92,1636.67,700.92,1647.76Z" fill="#a7a9ac"/><path d="M450.16,1332.11c15.5.29,20.35-10.78,20.29-21.91a20.42,20.42,0,0,0-20.78-20c-11.42.07-20.51,6.17-20.55,20.28C429.08,1321.57,438.75,1331.9,450.16,1332.11Z" fill="#a7a9ac"/><path d="M452.13,1412.24c15.49.3,20.35-10.77,20.28-21.91a20.41,20.41,0,0,0-20.77-20c-11.42.06-20.51,6.16-20.56,20.28C431.05,1401.7,440.71,1412,452.13,1412.24Z" fill="#a7a9ac"/><path d="M453.57,1445.89c-11.41.06-20.5,6.16-20.55,20.28,0,11.13,9.63,21.46,21,21.68,15.5.28,20.36-10.78,20.29-21.92A20.42,20.42,0,0,0,453.57,1445.89Z" fill="#a7a9ac"/><path d="M431.87,1091.9a19.71,19.71,0,0,0-20.06-19.35c-11,.07-19.78,6-19.83,19.58,0,10.75,9.29,20.72,20.31,20.92C427.25,1113.33,431.93,1102.65,431.87,1091.9Z" fill="#a7a9ac"/><path d="M481,1112.72c15,.28,19.65-10.4,19.59-21.15a19.72,19.72,0,0,0-20.06-19.35c-11,.06-19.79,6-19.83,19.57C460.65,1102.54,470,1112.52,481,1112.72Z" fill="#a7a9ac"/></g><path d="M441.81,1189.48h0c20.58-.35,39.41-14,49.13-35.72,2.27-5.08.82-11.4-3.31-14.4a8.26,8.26,0,0,0-4.89-1.62,9.08,9.08,0,0,0-8.07,5.74c-6.6,14.7-19.31,24-33.18,24.22H441c-13.52.08-25.51-8.67-32.89-24a9.07,9.07,0,0,0-8.08-5.5,8.23,8.23,0,0,0-5,1.77c-4.06,3.14-5.34,9.52-2.91,14.51,10.74,22.35,28.67,35.11,49.19,35Z" fill="#fff"/><path d="M686.47,1588.83c-11.82,0-23.64,5.55-33.79,10.78a5.91,5.91,0,0,1-2.69.56c-6.15,0-14.69-5-23.87-12.67-4.09-3.42-8.3-7.36-12.49-11.63-14.22-14.46-28.14-32.65-35.82-46.67-9.94-20.41-24.86-58.22-31.43-79.67-6.24-19.22-9.47-59.9-6.27-79.22,2.6-16.6,30.28-32.31,46.82-41.69l.67-.39c13.18-6.67,25.62-11,38.79-15.54,7.33-2.54,14.91-5.16,22.74-8.25l.28-.12c2.35-1,4.81-1.93,7.32-2.83,2.89-1,5.87-2,8.95-3.08a190.29,190.29,0,0,0,21.91-8.36c12.06-5.79,22.81-14.09,28.24-28.62,9.82-25,8.51-30.65-3.24-51l-1.26-2.18-.23-.37c-8.27-13.11-28.63-17.81-44.93-17.85a85.16,85.16,0,0,0-20.38,2.36c-2.41.61-4.94,1.34-7.57,2.16-6.83,2.14-14.37,5-22.31,8.19-14.15,5.76-29.61,12.83-44.77,19.78-27.63,12.65-58.69,26.88-73.58,28.73-8.24-10.56-12.45-23.55,7.17-46.7a233.52,233.52,0,0,1,16.48-17.06c13.85-13.37,28.18-27.2,32.86-51.16l.06-.39,1-6c2.94-18.2,4.71-29.18.31-50.79-9.77-52-55.92-92.86-105.07-93-35.84-.08-86.58,6.1-113.31,60.41-20.54,41.33-20.32,85.75.57,115.94,5,7.25,12.53,13.54,20.47,20.22,20.2,17,39.27,33,28.76,66-.42,1.34-1.42,4.47-11,4.45h0c-20.93,0-56.67-16-75.88-24.5-5-2.21-9.31-4.14-12.49-5.4a3.7,3.7,0,0,0-.5-.19c-8.29-2.85-16.74-7.93-25.68-13.3-2.85-1.71-5.73-3.43-8.64-5.11a127.24,127.24,0,0,0-18.72-9.12,64.6,64.6,0,0,0-12.18-3.37c-8.8-1.44-16-2.4-22.46-2.42-23.55,0-32.74,14-39.27,34.91-10.63,32.73-5.17,39.46,17.37,60l.95.86a63.16,63.16,0,0,0,9.65,7.48c7.76,4.94,16.41,8.38,25.14,11.41,2.78,1,5.59,1.92,8.37,2.84,10.64,3.54,20.69,6.87,28.63,11.85,9.66,6.4,23.14,11,37.42,15.85,16.72,5.7,35.69,12.15,43.5,20.62,17,19.52,25,59.49,15.87,79.39-5.75,11.11-11.86,23.93-17.77,36.32s-11.9,25-17.44,35.66c-3,5.65-6.36,13.39-10.24,22.35-5.65,13-14.87,34.28-24.78,49.61-6.95,10.77-14.24,18.61-20.86,18.6a8.5,8.5,0,0,1-2.89-.54c-2.77-1-5.49-1.91-8.17-2.7a89.73,89.73,0,0,0-25-4c-21.79,0-38.05,10.88-45.75,30.72-5.73,14.43-5.84,27.35-.34,38.39,11,22.11,41.35,30.46,68.12,37.84,6.85,1.89,13.33,3.67,19.22,5.61A63.21,63.21,0,0,0,279.9,1706c32.64.08,53.51-27.47,70.42-59,3.31-6.17,6.47-12.49,9.53-18.79,1.77-3.62,3.5-7.25,5.21-10.82l.51-1.07c7.56-16.19,23.81-42.48,36.87-63.6,4-6.54,7.74-12.52,10.65-17.34,4.78-7.7,11.65-11.6,20.4-11.58,17.37,0,37.16,14.69,46,34.07,3.27,7.15,6.63,15.11,10.19,23.55,6.05,14.37,12.59,29.87,20.12,44.8,2.43,4.81,5,9.57,7.63,14.21,14.78,25.84,33.3,48,58.6,56.71a116.26,116.26,0,0,1,11.54,4.8c6.44,3,12.53,5.8,20.25,5.81,6.14,0,12.29-1.75,19.35-5.53,4-2.15,9.35-4.83,15.51-7.92,22.65-11.35,50.83-25.48,63.4-38,17.91-17.75,17.92-28.89,11.48-44.44C709.69,1592.87,696.31,1588.85,686.47,1588.83Zm-35.59-375.89a65.6,65.6,0,0,1,15.24-1.73c14.88,0,24.82,4.67,27,7.86l1.14,2c8.74,15.13,8.74,15.13,1.8,32.83-3.31,8.86-10.61,14.06-19.93,18.17.48-4-.22-7.35-2.08-11.88-2.52-6.14-9.63-8.2-15.47-9.35-8.94-1.78,1.54-19.59-4-26.78-1.15-1.47-7.2-5.31-12.47-8.46C645.2,1214.53,648.16,1213.64,650.88,1212.94Zm-474.64,39.47c-1.11-3.33-.07-9.06,3.9-21.28,6.29-20.18,11.36-20.17,19-20.16,5.36,0,12.34,1,19.08,2.14a56.06,56.06,0,0,1,15.6,5.52l-.76.21c-4.95,1.31-11.72,3.12-15.62,9.72-4.74,8-1.37,15.84.65,20.54.76,1.74,1.76,4.05,1.77,5.14a27.44,27.44,0,0,1-4.47.77c-4.94.61-13.2,1.62-17.4,9.15a20.08,20.08,0,0,0-2.58,8.25c-.94-.75-1.88-1.51-2.75-2.33l-1.1-1C183.13,1261.36,177.54,1256.25,176.24,1252.41Zm103.7,432.42a41.74,41.74,0,0,1-12.46-2.08c-6.28-2.07-13-3.92-20.12-5.88-22.49-6.2-48-13.23-54.8-26.87-2.74-5.51-2.39-12.42,1.1-21.21,4.6-11.83,12.86-17.32,26-17.3,7.49,0,16.22,1.84,25.93,5.4a29.51,29.51,0,0,0,10.13,1.84c8.58,0,16.3-3.65,23.31-9.73.06.84.14,1.67.27,2.44,1.4,8.13,10,14.13,18.12,13.54a58.22,58.22,0,0,0,12.61-2.37c5.86-1.76,7.47,14.57,9.6,18.55a13.88,13.88,0,0,0,6.23,6.09C313.23,1668.44,298.57,1684.87,279.94,1684.83Zm229.25-111.67c-3.62-8.58-7-16.68-10.43-24.12-12.26-26.85-39.7-46.39-65.22-46.44-16.12,0-29.77,7.63-38.51,21.7-2.94,4.88-6.6,10.78-10.6,17.25-13.35,21.6-30,48.47-38,65.7l-.46,1c-2.88,6-5.82,12.14-8.85,18.2-.16-.66-.31-1.42-.47-2.32-1.27-7-3.07-12-8.22-17-6.1-5.87-16.63-3.31-23.58-1.25s-5.23-10.44-6-14.24a13.9,13.9,0,0,0-2.06-4.72c9.19-14.91,17-32.9,24-49.14,3.71-8.53,6.92-15.92,9.57-20.92,5.76-11.11,11.88-24,17.81-36.39s11.95-25.06,17.57-35.9c.07-.13.13-.27.19-.4,14-30.06,1.52-78.87-19.21-102.65-11.66-12.65-32.39-19.7-52.44-26.53-12.94-4.4-25.16-8.56-32.76-13.6-10.33-6.47-22.07-10.38-33.44-14.15-3.78-1.26-7.49-2.5-11.09-3.81-.67-1.64-1.43-3.11-2.07-4.35-2.18-4.19-2.28-5.06-1.86-6a40.89,40.89,0,0,1,4.51-.73c5.39-.67,14.41-1.78,18.31-10.81,3.32-7.72.42-14.47-1.71-19.4a25.18,25.18,0,0,1-1.72-4.62c.54-.58,3.64-1.4,5.13-1.8,4.09-1.08,9.74-2.6,14-7,9,5.42,18.36,10.91,28.21,14.33,2.8,1.13,6.85,2.93,11.53,5,22.07,9.82,59,26.26,84.42,26.32h0c21.84.06,28.95-12,31.24-19.19,14.82-46.5-15.35-71.84-35.32-88.6-6.82-5.74-13.27-11.15-16.67-16.07C338.73,1127,339.11,1090,356,1056c16.6-33.74,45.68-48.74,94.29-48.63,39.31.09,76.35,33.34,84.33,75.86,3.66,18,2.38,25.94-.42,43.37l-.93,5.83c-3.45,17.31-13.74,27.25-26.76,39.82a251.21,251.21,0,0,0-17.91,18.6c-24,28.31-25.24,53.86-3.79,78.11a10.56,10.56,0,0,0,7,3.53c.87.08,1.77.12,2.71.12,18,0,49.24-14.27,85.44-30.85,12.69-5.81,25.58-11.71,37.53-16.77a15.77,15.77,0,0,0,2,1.59,37.69,37.69,0,0,0,9.41,4.65c8.7,3,4.92,9.53,3.16,15.8-2.8,9.9,4.82,17.71,13.29,20.61,3.09,1.06,12.45-.05,8.72,7.77-.79,1.66-1.78,3.53-2.57,5.47-3.43,1.21-6.87,2.47-10.23,3.91-7.37,2.9-14.68,5.43-21.75,7.88-13.34,4.61-27.13,9.38-41.68,16.78l-.42.23-.9.5c-21.14,12-53.09,30.15-57.26,56.73-3.73,22.55-.25,66.69,7,89,6.92,22.59,22.19,61.27,32.7,82.8.07.14.14.28.22.42,4,7.4,14.08,22.46,26.95,37.7a21.25,21.25,0,0,0-2.92,1.71c-6.93,4.81-7.12,12.91-7.26,18.28,0,1.87-.13,5.34-.76,6.13-1.34.75-3.69.09-7.4-1.1-5.26-1.68-13.19-4.21-20.59,1.2-6.14,4.5-7.27,11.57-8.12,16.74-.71,4.33-1.22,6.62-2.58,7.67a11.38,11.38,0,0,1-2.26-.48C524.61,1609.72,516.52,1590.54,509.19,1573.16Zm182,68.12c-10.18,10.1-38.94,24.52-58,34.06-6.31,3.17-11.76,5.9-16,8.2-3.79,2-6.84,3-9.29,3-3,0-5.94-1.32-11.41-3.85a137,137,0,0,0-13.57-5.62c-15.77-5.4-28.8-18.76-39.93-35.54a11.51,11.51,0,0,0,1.18-.56c7.94-4.75,9.25-12.83,10.23-18.71.45-2.79,1-6,2-6.69s3.22,0,6.63,1.07c5.21,1.68,12.36,4,19.67-.09,8.44-4.67,8.65-13.52,8.79-19.38,0-1.92.12-5.16.6-5.88,1.83-1.28,3.11-1.19,7.82.65,16,16.12,34.16,29.35,50.08,29.39a26.77,26.77,0,0,0,12.43-2.91c8.52-4.39,17.32-8.45,24-8.43,2.61,0,7.46,0,11.59,10C701.46,1628.31,702.27,1630.28,691.19,1641.28Z" fill="#fff"/><path d="M443.79,1323.58c15.49-.47,19.8-11.76,19.19-22.88a20.42,20.42,0,0,0-21.75-19c-11.39.63-20.17,7.16-19.52,21.26C422.22,1314.09,432.38,1323.93,443.79,1323.58Z" fill="#fff"/><path d="M444.72,1403.76c15.5.29,20.36-10.77,20.29-21.91a20.41,20.41,0,0,0-20.78-20c-11.41.06-20.51,6.15-20.55,20.27C423.65,1393.22,433.31,1403.55,444.72,1403.76Z" fill="#fff"/><path d="M446.17,1437.41c-11.41.06-20.51,6.16-20.55,20.27,0,11.14,9.63,21.47,21,21.68,15.5.29,20.36-10.78,20.29-21.91A20.41,20.41,0,0,0,446.17,1437.41Z" fill="#fff"/><path d="M424.47,1083.42a19.71,19.71,0,0,0-20.05-19.35c-11,.06-19.8,6-19.85,19.58,0,10.74,9.3,20.72,20.31,20.92C419.85,1104.85,424.53,1094.17,424.47,1083.42Z" fill="#fff"/><path d="M473.59,1104.23c15,.29,19.65-10.4,19.59-21.15a19.71,19.71,0,0,0-20.06-19.34c-11,.06-19.79,5.94-19.84,19.57C453.25,1094.06,462.58,1104,473.59,1104.23Z" fill="#fff"/><path d="M431,1306.24c-2-1.4-1.67,2.18.16,4.29,10.59,12.21,26.75,10.91,26.37-11-.07-4-2.74,2.24-4.65,4.55C445.15,1313.44,437.25,1310.62,431,1306.24Z" fill="#e6e7e8"/><path d="M431.46,1386c-2-1.39-1.67,2.19.16,4.3,10.59,12.22,26.75,10.91,26.37-11-.06-4.06-2.74,2.22-4.65,4.54C445.6,1393.19,437.7,1390.36,431.46,1386Z" fill="#e6e7e8"/><path d="M436,1461.56c-2-1.39-1.67,2.19.16,4.3,10.59,12.21,26.75,10.91,26.37-11-.07-4-2.74,2.24-4.65,4.55C450.17,1468.77,442.27,1466,436,1461.56Z" fill="#e6e7e8"/><path d="M462.92,1087.52c-2-1.4-1.67,2.19.16,4.3,10.58,12.21,26.74,10.9,26.37-11-.06-4.06-2.74,2.23-4.66,4.55C477.05,1094.73,469.16,1091.9,462.92,1087.52Z" fill="#e6e7e8"/><path d="M393.52,1086.87c-2-1.39-1.67,2.19.16,4.31,10.59,12.21,26.74,10.9,26.37-11-.07-4.06-2.74,2.23-4.66,4.54C407.66,1094.08,399.76,1091.26,393.52,1086.87Z" fill="#e6e7e8"/><ellipse cx="442.67" cy="973.88" rx="11.37" ry="3.67" fill="#a7a9ac" style="mix-blend-mode:multiply"/><path d="M434.85,2.26h14V973.19h0a16.05,16.05,0,0,1-12.53.55l-1.47-.55Z" fill="url(#b)"/><rect x="434.85" y="3.83" width="4" height="970.92" fill="#a7a9ac" style="mix-blend-mode:multiply"/><rect x="448.85" y="949.99" width="4" height="25" fill="#a7a9ac" style="mix-blend-mode:multiply"/></g></svg>