<svg xmlns="http://www.w3.org/2000/svg" xmlns:xlink="http://www.w3.org/1999/xlink" viewBox="0 0 784.75 1871.7"><defs><linearGradient id="a" x1="159.77" y1="1487.82" x2="630.44" y2="1487.82" gradientUnits="userSpaceOnUse"><stop offset="0" stop-color="#98d2cc"/><stop offset="1" stop-color="#7ec9c2"/></linearGradient><linearGradient id="b" x1="404.16" y1="591.95" x2="418.16" y2="591.95" xlink:href="#a"/></defs><g style="isolation:isolate"><rect x="416.3" y="19.84" width="16.85" height="1178.81" fill="#ebebec" style="mix-blend-mode:multiply"/><path d="M526.17,1299.19c.27-2.39-4-19.9-4.48-22.32-7.15-33.36-24-46.83-58.16-46.83s-54.41,7.72-61.62,40.35c-1.09,4.93-4.86,24.34-4.73,26.07-131.5,24.75-216.89,131.27-216.89,262.37,0,149.34,116.46,272.87,275.07,272.87s268.23-111.58,272.21-260.87C731.47,1424.77,652.71,1327.45,526.17,1299.19Z" fill="#ebebec" style="mix-blend-mode:multiply"/><path d="M480.86,1238c.26-2.4-4-19.91-4.49-22.33-7.15-33.36-24-46.83-58.15-46.83s-54.42,7.72-61.63,40.36c-1.09,4.92-4.86,24.33-4.72,26.07C220.36,1260,135,1366.55,135,1497.65,135,1647,251.43,1770.52,410,1770.52s268.23-111.59,272.21-260.88C686.15,1363.58,607.39,1266.26,480.86,1238Z" fill="#bc6932"/><path d="M467.14,1227.46c.27-2.4-4-19.91-4.48-22.32-7.15-33.36-24-46.84-58.16-46.84s-54.41,7.72-61.62,40.36c-1.09,4.92-4.87,24.33-4.73,26.07C206.65,1249.47,121.26,1356,121.26,1487.1c0,149.34,116.46,272.87,275.07,272.87s268.22-111.59,272.21-260.88C672.44,1353,593.68,1255.71,467.14,1227.46Z" fill="#d88041"/><ellipse cx="395.11" cy="1487.82" rx="235.34" ry="232.27" fill="url(#a)"/><path d="M559,1412c15.13-5.5,9.25-16.61,5.08-23.83a15.28,15.28,0,0,0-20.94-5.34c-7.4,4.27-11,11.61-5.85,20.81C541.39,1410.91,547.89,1416.06,559,1412Z" fill="#a7a9ac" style="mix-blend-mode:multiply"/><path d="M555.26,1407.35c15.13-5.5,9.25-16.62,5.08-23.84a15.31,15.31,0,0,0-21-5.34c-7.39,4.28-11,11.61-5.84,20.81C537.65,1406.24,544.15,1411.39,555.26,1407.35Z" fill="#fff"/><path d="M539.9,1399.35c-1.44-.75-1.36,1.36-.07,2.54,7.48,6.83,19.8,5.44,20.51-7.5.13-2.4-2.18,1.42-3.74,2.86C550.3,1403.08,544.44,1401.71,539.9,1399.35Z" fill="#e6e7e8"/><path d="M391.55,1325.55c15.13-5.5,9.25-16.62,5.08-23.83a15.28,15.28,0,0,0-20.94-5.34c-7.4,4.27-11.05,11.61-5.85,20.8C373.94,1324.44,380.44,1329.59,391.55,1325.55Z" fill="#a7a9ac" style="mix-blend-mode:multiply"/><path d="M387.81,1320.87c15.12-5.5,9.25-16.61,5.08-23.83A15.28,15.28,0,0,0,372,1291.7c-7.4,4.27-11.06,11.61-5.85,20.81C370.2,1319.76,376.7,1324.91,387.81,1320.87Z" fill="#fff"/><path d="M372.46,1312.87c-1.45-.74-1.37,1.36-.08,2.54,7.48,6.83,19.8,5.45,20.51-7.49.13-2.4-2.18,1.42-3.74,2.86C382.86,1316.6,377,1315.23,372.46,1312.87Z" fill="#e6e7e8"/><path d="M250.89,1412.42c15.13-5.5,9.25-16.61,5.08-23.83a15.28,15.28,0,0,0-20.94-5.34c-7.4,4.27-11.05,11.61-5.85,20.81C233.28,1411.31,239.78,1416.46,250.89,1412.42Z" fill="#a7a9ac" style="mix-blend-mode:multiply"/><path d="M247.15,1407.75c15.13-5.51,9.25-16.62,5.08-23.84a15.3,15.3,0,0,0-20.94-5.34c-7.4,4.28-11.06,11.61-5.85,20.81C229.54,1406.64,236,1411.78,247.15,1407.75Z" fill="#fff"/><path d="M231.79,1399.75c-1.44-.75-1.36,1.36-.07,2.53,7.48,6.83,19.8,5.45,20.51-7.49.13-2.4-2.18,1.42-3.74,2.86C242.2,1403.48,236.33,1402.11,231.79,1399.75Z" fill="#e6e7e8"/><path d="M253.67,1592.28c15.13-5.5,9.25-16.62,5.08-23.83a15.3,15.3,0,0,0-20.95-5.34c-7.39,4.27-11.05,11.61-5.85,20.8C236.06,1591.17,242.56,1596.32,253.67,1592.28Z" fill="#a7a9ac" style="mix-blend-mode:multiply"/><path d="M249.93,1587.6c15.12-5.5,9.24-16.62,5.07-23.83a15.28,15.28,0,0,0-20.94-5.34c-7.4,4.27-11.05,11.61-5.85,20.8C232.31,1586.49,238.81,1591.64,249.93,1587.6Z" fill="#fff"/><path d="M234.57,1579.6c-1.44-.75-1.36,1.36-.08,2.54,7.49,6.83,19.8,5.45,20.52-7.49.13-2.4-2.18,1.42-3.74,2.86C245,1583.33,239.11,1582,234.57,1579.6Z" fill="#e6e7e8"/><path d="M405.21,1676.14c15.12-5.5,9.25-16.61,5.07-23.83a15.27,15.27,0,0,0-20.93-5.34c-7.41,4.27-11.06,11.61-5.85,20.81C387.6,1675,394.1,1680.18,405.21,1676.14Z" fill="#a7a9ac" style="mix-blend-mode:multiply"/><path d="M401.47,1671.47c15.12-5.51,9.24-16.62,5.07-23.84a15.29,15.29,0,0,0-20.94-5.34c-7.4,4.27-11.05,11.61-5.85,20.81C383.85,1670.35,390.36,1675.5,401.47,1671.47Z" fill="#fff"/><path d="M386.11,1663.47c-1.44-.75-1.36,1.36-.08,2.53,7.49,6.83,19.8,5.45,20.51-7.49.14-2.4-2.18,1.42-3.73,2.86C396.51,1667.2,390.65,1665.83,386.11,1663.47Z" fill="#e6e7e8"/><path d="M564.17,1597.23c15.12-5.5,9.24-16.61,5.07-23.83a15.3,15.3,0,0,0-20.94-5.34c-7.4,4.28-11,11.61-5.85,20.81C546.55,1596.12,553.05,1601.27,564.17,1597.23Z" fill="#a7a9ac" style="mix-blend-mode:multiply"/><path d="M560.42,1592.56c15.13-5.51,9.25-16.62,5.08-23.84a15.29,15.29,0,0,0-20.94-5.33c-7.4,4.27-11,11.61-5.85,20.8C542.81,1591.45,549.31,1596.6,560.42,1592.56Z" fill="#fff"/><path d="M545.07,1584.56c-1.44-.75-1.37,1.36-.08,2.54,7.48,6.83,19.8,5.44,20.51-7.49.13-2.4-2.18,1.42-3.74,2.86C555.47,1588.29,549.6,1586.92,545.07,1584.56Z" fill="#e6e7e8"/><path d="M307.91,1348c4.69-.48,54.31,39,53,40.74s-54.23-37.62-54.23-37.62Z" fill="#e3f2ef"/><path d="M385.28,1474.11c-.19-7.21,2.92-24.66-.81-30.61s-21-11.17-27.48-14.61l.81,30.58Z" fill="#b3e0dd"/><path d="M359.33,1518.21c-3.4,6.13.63,23.4.83,30.61l26.68-16-.82-30.61C379.73,1506,362.73,1512.07,359.33,1518.21Z" fill="#b3e0dd"/><path d="M428.57,1457.69c3.41-6.14-.61-23.4-.8-30.62q-13.35,8-26.71,16l.8,30.62C408.16,1469.92,425.16,1463.83,428.57,1457.69Z" fill="#b3e0dd"/><path d="M349.86,1473.74c-7.13.18-20.4,12.22-26.69,16,6.48,3.45,20.36,14.8,27.5,14.61s20.39-12.2,26.68-16C370.87,1484.92,357,1473.56,349.86,1473.74Z" fill="#b3e0dd"/><path d="M410.52,1487.53c6.49,3.44,20.35,14.78,27.49,14.6s20.41-12.2,26.72-16c-6.49-3.45-20.38-14.81-27.51-14.63S416.81,1483.76,410.52,1487.53Z" fill="#b3e0dd"/><path d="M430.12,1516.41c-3.73-6-21-11.17-27.51-14.61.21,7.89-2.65,24.39,1.27,30.85,3.49,5.74,21.29,11.31,27.05,14.38C430.74,1539.81,433.85,1522.36,430.12,1516.41Z" fill="#b3e0dd"/><path d="M573,1322.41a213.75,213.75,0,0,0-117.87-67.06c-.62-4.58-1.41-9.34-2.18-14-.94-5.61-1.9-11.42-2.49-16.46-2.6-22.42-17.54-38.55-30.28-42.35-18.28-5.46-34.72-.85-45.1,12.64l-.2.27c-13.51,18.88-14.81,41.35-14.28,60.85-50.34,9-96.84,29.8-133.63,66.11-46.33,45.73-71.84,106.55-71.84,171.26s29.15,121.95,71.84,171.25c44.16,51,107.67,70.76,173,70.76,70.83,6.87,126.78-25.13,173-70.76s71.83-106.54,71.83-171.25S614.84,1369.1,573,1322.41ZM400,1716.2c-124-6.12-232.08-100-225.82-222.53C180.33,1373,275.47,1271.14,400,1271.14c119.69,5.09,218.67,101.83,225.82,222.53C633.06,1616.14,524.35,1722.33,400,1716.2Z" fill="#a7a9ac" style="mix-blend-mode:multiply"/><path d="M568.12,1316.57a213.64,213.64,0,0,0-117.86-67.07c-.62-4.57-1.41-9.33-2.18-14-.94-5.62-1.9-11.43-2.49-16.47-2.6-22.41-17.54-38.54-30.28-42.34-18.29-5.46-34.73-.86-45.1,12.63l-.2.27c-13.51,18.89-14.81,41.35-14.28,60.85-50.34,9-96.84,29.8-133.63,66.12-46.33,45.72-71.84,106.54-71.84,171.25s29.15,122,71.84,171.26c44.15,51,107.67,70.76,173,70.76,70.83,6.87,126.78-25.13,173-70.76S640,1552.53,640,1487.82,610,1363.26,568.12,1316.57Zm-173,393.78c-124-6.12-232.08-100-225.82-222.53,6.17-120.69,101.3-222.53,225.82-222.53,119.69,5.1,218.67,101.84,225.82,222.53C628.18,1610.3,519.48,1716.49,395.11,1710.35Z" fill="#fff"/><path d="M512.47,1695.48h-.14c-19.39-.4-40.69-28.54-53.21-40.07-11.48-10.59-37.33-41.23-55.38-39.29-8.27,2-16.57,8.83-23.55,13.27-13.67,8.68-27.08,17.73-40.59,26.64-14.34,9.44-32.54,25.64-50.24,28.78-21.13,3.75-11.31-34.28-9.94-43.06,4.7-30.21,15.07-61.9,15.78-92.49-13.38-18-136.49-30.83-125.31-59.8,5.39-14,31.16-20.72,43.42-25.55,26.36-10.4,59.94-17.11,83.4-33.16.49-16-42.7-135.08-10.71-131,17.91,2.26,36.9,24.42,49.83,34.87,13.87,11.22,38.83,37.6,58.43,37.6,18.52,0,38.93-21.83,51.46-32.91,15.86-14,32-36.09,51.88-44.58,27.09-11.58,19,42,17.17,52.75-4,23.49-17,56.13-10.62,79.87,5.83,6.69,18,10.29,25.91,13.75,13.22,5.78,26.64,11.12,39.92,16.77,16.28,6.92,44.57,15.4,53.15,32.49,13.34,26.57-97.91,46.44-115.62,57.82-1.09,17.18,36.13,147.34,5.06,147.35Zm-108.22-96.37c17.32,0,33.75,15.08,45.92,25.38,19.44,16.45,36.72,36,57.47,50.94-.24-27-7.11-54.52-11.6-81.11-2.57-15.22-9.57-36.65-5-52.18,3-10.23,19.38-14.3,28-17.5,28.27-10.46,58.16-17.63,85.74-29.78-31.72-26.44-81.07-27.27-111.85-54.59-13.42-11.9-5.75-38.65-3.16-53.38,4.09-23.21,13.58-50.05,10.46-73.8-30.3,23.72-59.2,66.86-99.24,75.32-18.29,3.86-36.54-10.56-50.2-20.51-20.68-15.05-39.37-32.65-60.31-47.33,1.21,27.52,11.39,54.82,18.2,81.34,2.68,10.43,10.77,30.63,1.31,40-11,11-31.68,15.67-45.78,21-24.47,9.17-51.06,16.77-73.73,29.85,25.66,11.17,53.95,16.69,80.39,25.88,12.94,4.49,36,10.7,40.93,25.42,4,11.84-2.67,29.75-4.77,41.25-4.78,26.27-10.78,52.69-13.14,79.3,23.22-12.87,44.83-28.68,67-43.13,11.59-7.55,28.35-22.37,43.33-22.37Z" fill="#a7a9ac" style="mix-blend-mode:multiply"/><path d="M508.62,1689.82h-.15c-19.39-.4-40.69-28.54-53.2-40.07-11.48-10.59-37.34-41.23-55.39-39.29-8.26,2-16.57,8.83-23.55,13.27-13.66,8.68-27.08,17.73-40.59,26.64-14.33,9.43-32.53,25.64-50.24,28.78-21.12,3.74-11.31-34.28-9.94-43.06,4.7-30.21,15.08-61.9,15.78-92.49-13.38-18-136.49-30.83-125.31-59.8,5.39-14,31.17-20.72,43.43-25.55,26.35-10.4,59.93-17.11,83.39-33.16.49-16-42.7-135.08-10.71-131,17.91,2.26,36.91,24.42,49.83,34.87,13.87,11.22,38.83,37.6,58.44,37.6,18.52,0,38.93-21.83,51.46-32.91,15.85-14,32-36.09,51.87-44.58,27.09-11.58,19,42,17.17,52.75-4,23.49-17,56.13-10.62,79.87,5.84,6.69,18,10.29,25.91,13.75,13.22,5.78,26.64,11.12,39.93,16.77,16.27,6.91,44.56,15.4,53.13,32.48,13.35,26.58-97.9,46.45-115.61,57.83-1.09,17.17,36.13,147.34,5.06,147.35ZM400.4,1593.45c17.31,0,33.74,15.08,45.91,25.38,19.45,16.45,36.72,36,57.48,50.94-.25-27-7.11-54.52-11.61-81.1-2.57-15.23-9.57-36.66-5-52.19,3-10.23,19.39-14.3,28-17.5,28.27-10.46,58.16-17.63,85.74-29.79-31.71-26.43-81.07-27.26-111.85-54.58-13.41-11.9-5.74-38.65-3.15-53.37,4.08-23.22,13.58-50.06,10.45-73.81-30.3,23.72-59.2,66.86-99.24,75.32-18.29,3.86-36.54-10.57-50.2-20.51-20.68-15-39.36-32.65-60.3-47.33,1.2,27.52,11.38,54.82,18.19,81.34,2.68,10.42,10.77,30.63,1.31,40-11,11-31.68,15.67-45.78,21-24.47,9.17-51.06,16.77-73.73,29.84,25.66,11.18,54,16.7,80.39,25.88,12.94,4.5,36,10.71,40.93,25.43,4,11.84-2.67,29.75-4.77,41.26-4.78,26.26-10.78,52.68-13.14,79.29,23.22-12.87,44.83-28.68,67-43.13,11.58-7.55,28.35-22.37,43.33-22.37Z" fill="#fff"/><path d="M457.35,1514.15c6.6-4,35.37-16.26,34.71-24.77.18-8.71-29.08-19.34-36-23-4.57-2.46-8.78-8.8-8.68-13.84-.25-9.21,3.75-31.11-1.22-39-6.71-10.52-34.6,12-41.69,16.25-4.8,3.44-11.6,2.81-16.58.42-6.64-3.53-32.45-22.49-39.65-16.76-7.61,4-2.2,34.51-2,41.69-.77,6.29-3.89,9.46-7.9,14.27-6.44,3.84-35.7,16.35-34.73,24.81-.42,8.39,29.36,19.44,36,22.95,5.88,2.25,8.59,7.64,8.65,13.87.24,9.14-3.78,31.15,1.22,39,6.61,10.66,34.68-12,41.7-16.24,6.66-1.79,9.17-2.11,16.59-.43,8.25,4.4,25.65,18.76,35.2,18.5,12.64-.37,6.67-35.32,6.45-43.45C449.89,1524.43,452.16,1517.46,457.35,1514.15Zm-69-66.85c3.73,6,.62,23.4.81,30.62l-27.48-14.65q-.42-15.29-.81-30.58C367.36,1436.13,384.63,1441.35,388.36,1447.3Zm-33.81,60.85c-7.13.18-21-11.17-27.5-14.62,6.29-3.77,19.56-15.81,26.69-16s21,11.18,27.49,14.62C374.94,1495.94,361.68,1508,354.55,1508.15Zm9.49,44.48c-.19-7.22-4.23-24.49-.82-30.62s20.4-12.22,26.69-16l.81,30.6Zm67.62-121.76c.19,7.23,4.21,24.48.8,30.62s-20.41,12.23-26.71,16l-.81-30.62Q418.31,1438.9,431.66,1430.87Zm3.16,120c-5.76-3.06-23.56-8.64-27.05-14.38-3.93-6.46-1.07-23-1.28-30.85,6.49,3.44,23.79,8.65,27.51,14.61S434.63,1543.61,434.82,1550.83Zm7.08-44.9c-7.14.18-21-11.15-27.5-14.6,6.3-3.77,19.57-15.81,26.7-16s21,11.18,27.51,14.63C462.31,1493.74,449,1505.75,441.9,1505.93Z" fill="#a7a9ac" style="mix-blend-mode:multiply"/><path d="M452.19,1462.57c-4.56-2.46-8.78-8.8-8.67-13.85-.25-9.2,3.75-31.1-1.23-39-6.71-10.52-34.6,12-41.69,16.26-4.8,3.44-11.6,2.8-16.58.42-6.64-3.53-32.45-22.49-39.65-16.77-7.61,4-2.2,34.51-2,41.7-.76,6.29-3.89,9.46-7.9,14.27-6.44,3.84-35.7,16.34-34.73,24.81-.41,8.39,29.37,19.44,36,23,5.88,2.25,8.58,7.63,8.64,13.87.24,9.14-3.77,31.15,1.23,39,6.61,10.66,34.67-12,41.69-16.25,6.67-1.78,9.17-2.1,16.59-.42,8.26,4.39,25.66,18.76,35.2,18.49,12.64-.37,6.67-35.32,6.46-43.45.47-4,2.74-10.94,7.93-14.25,6.6-4,35.38-16.26,34.71-24.77C488.35,1476.87,459.09,1466.24,452.19,1462.57Zm-67.72-19.07c3.73,6,.62,23.4.81,30.61l-27.48-14.64-.81-30.58C363.47,1432.33,380.75,1437.55,384.47,1443.5Zm-33.8,60.84c-7.14.19-21-11.16-27.5-14.61,6.29-3.77,19.56-15.81,26.69-16s21,11.18,27.49,14.63C371.06,1492.14,357.8,1504.16,350.67,1504.34Zm9.49,44.48c-.2-7.21-4.23-24.48-.83-30.61s20.4-12.23,26.69-16l.82,30.61Zm67.61-121.75c.19,7.22,4.21,24.48.8,30.62s-20.41,12.23-26.71,16l-.8-30.62Q414.43,1435.09,427.77,1427.07Zm3.16,120c-5.76-3.07-23.56-8.64-27.05-14.38-3.92-6.46-1.06-23-1.27-30.85,6.48,3.44,23.78,8.65,27.51,14.61S430.74,1539.81,430.93,1547Zm7.08-44.9c-7.14.18-21-11.16-27.49-14.6,6.29-3.77,19.56-15.81,26.7-16s21,11.18,27.51,14.63C458.42,1489.93,445.15,1502,438,1502.13Z" fill="#fff"/><path d="M383.27,1495c-1.49-.76-1.42,1.38-.08,2.58,7.77,6.94,20.57,5.53,21.31-7.62.14-2.43-2.27,1.45-3.89,2.91C394.08,1498.79,388,1497.4,383.27,1495Z" fill="#e6e7e8"/><path d="M316.74,1250.39c11.87-2,21.52-12.11-2.47-7.44-80,15.59-164.52,105.4-175.68,176.39-1.8,11.44,18.18-35.61,26.52-50.18C200.33,1307.7,258.22,1260.05,316.74,1250.39Z" fill="#edc5a7"/><path d="M635.63,1590.59c3.49-11.51,14.82-19.75,7,3.42-25.9,77.27-126,149.35-197.82,151.14-11.57.29,37.67-13.37,53.21-19.74C563.6,1698.52,618.41,1647.35,635.63,1590.59Z" fill="#bc6932"/><ellipse cx="411.98" cy="1184.33" rx="11.37" ry="3.67" fill="#a7a9ac" style="mix-blend-mode:multiply"/><path d="M404.16,1.59h14V1180.42h0a13.5,13.5,0,0,1-12.54.66l-1.46-.66Z" fill="url(#b)"/><rect x="404.16" y="3.5" width="4" height="1178.81" fill="#a7a9ac" style="mix-blend-mode:multiply"/><rect x="418.16" y="1160.44" width="4" height="25" fill="#a7a9ac" style="mix-blend-mode:multiply"/></g></svg>