<svg xmlns="http://www.w3.org/2000/svg" viewBox="0 0 877.53 1871.7"><g style="isolation:isolate"><rect x="461.12" y="15.1" width="16.85" height="975.24" fill="#ebebec" style="mix-blend-mode:multiply"/><path d="M808.32,1644.59c-68.74-106.69-116.89-139.54-116.44-156.81.22-8.09,48.7.75,60.92,1,21.47.33,28.07-23.18,17.09-39.51-34.41-51.13-123.1-135.37-121.71-146.31,1.52-11.9,24,.38,36,.57,16.24.25,30.13-19.15,20.66-34.74-60-98.81-101-152.92-163.5-234-11.26-14.62-43.73-12.65-55.92,1.19-65.95,74.93-121.33,145.14-172.8,226.68-5.12,8.1-4.08,18.46,1.39,25.93a20.61,20.61,0,0,0,14,9,21.36,21.36,0,0,0,3.95.41l.24,0c12,.18,34.8-11.39,36,.56S278,1385.77,242,1441l0,0a22.5,22.5,0,0,0-4.11,6.28l-.34.85c-.13.32-.26.62-.36.95-.2.53-.36,1.06-.51,1.6,0,.13-.06.25-.1.37-.13.52-.25,1-.35,1.56s-.18,1.09-.25,1.63c0,0,0,0,0,0-1.36,10.51,3.49,22,14.7,25.54,4.33,2.05,59.29-5.59,68.13,2.11,4.81,4.2-88.5,99.15-122.15,149-10.69,15.83-8.05,17.79-21.12,31.74-10.53,11.22-7.12,28.89-1.67,36.37,3,4.46,12.26,14.52,29.83,16.87,1.4.19,58.9,3,59,3,66.89,3.36,168,4,177.69,4.46,3.82.19-19,57.58-28.55,86.37a9.44,9.44,0,0,0,2.39,10.33c1.72,2.11,4.36,3.21,7.88,3.6,58.36,6.32,107,8.12,158.69,2.47,6.84-.74,12.72-6.77,10.7-13.59-8.82-29.75-25.88-81.67-26.42-89.23-.47-6.39,60.26.22,94.09.75,53.54.83,104.58-.44,152.23-1.77C827.44,1721.83,851.68,1711.89,808.32,1644.59Z" fill="#ebebec" style="mix-blend-mode:multiply"/><path d="M764.57,1588.62c-68.74-106.68-116.89-139.53-116.43-156.81.21-8.08,48.69.76,60.91,1,21.47.34,28.07-23.19,17.09-39.5-34.41-51.14-123.09-135.38-121.7-146.32,1.51-11.9,24,.38,36,.57,16.23.25,30.12-19.14,20.65-34.73-60-98.81-101-152.92-163.49-234-11.27-14.62-43.74-12.65-55.93,1.19-65.95,74.93-121.33,145.13-172.8,226.67-5.12,8.1-4.08,18.46,1.39,25.93a22.26,22.26,0,0,0,17.94,9.41l.23,0c12,.19,34.8-11.39,36,.56S234.29,1329.8,198.2,1385c0,0,0,0,0,.06a22.3,22.3,0,0,0-4.11,6.27l-.34.85c-.12.32-.25.63-.36,1-.19.53-.36,1.07-.51,1.61l-.09.37c-.14.52-.26,1-.35,1.55s-.19,1.09-.26,1.64v0c-1.37,10.52,3.48,22,14.7,25.55,4.32,2,59.28-5.6,68.12,2.1,4.81,4.19-88.5,99.16-122.14,149-10.69,15.84-8.05,17.8-21.13,31.74-10.53,11.23-7.12,28.89-1.66,36.37,2.94,4.47,12.25,14.53,29.82,16.87,1.4.19,58.9,3,59,3,66.89,3.36,168,4,177.69,4.45,3.82.19-19,57.59-28.55,86.37a9.44,9.44,0,0,0,2.4,10.34c1.72,2.1,4.35,3.2,7.87,3.59,58.36,6.32,107,8.12,158.69,2.48,6.84-.75,12.72-6.77,10.71-13.59-8.82-29.75-25.89-81.67-26.43-89.24-.47-6.38,60.26.22,94.09.75,53.54.84,104.58-.44,152.23-1.76C783.69,1665.87,807.94,1655.92,764.57,1588.62Z" fill="#bc6932"/><path d="M749.28,1572.85C680.55,1466.17,632.39,1433.32,632.85,1416c.21-8.08,48.69.76,60.91,1,21.47.33,28.08-23.18,17.09-39.5-34.41-51.14-123.09-135.37-121.7-146.31,1.52-11.91,24,.37,36,.56,16.24.25,30.13-19.14,20.66-34.73-60-98.81-101-152.92-163.5-234-11.26-14.62-43.73-12.66-55.93,1.19-65.94,74.93-121.33,145.13-172.8,226.67-5.11,8.11-4.07,18.46,1.4,25.94a22.28,22.28,0,0,0,17.93,9.4l.23,0c12,.19,34.81-11.38,36,.56S219,1314,182.92,1369.24c0,0,0,0-.06.06a22.32,22.32,0,0,0-4.1,6.28c-.12.28-.23.57-.35.85s-.25.62-.35.94c-.2.54-.36,1.07-.51,1.61,0,.12-.06.25-.1.37-.13.52-.26,1-.35,1.56s-.18,1.08-.26,1.63c0,0,0,0,0,0-1.36,10.51,3.48,22,14.7,25.54,4.32,2.05,59.29-5.6,68.12,2.1,4.82,4.2-88.49,99.15-122.14,149-10.7,15.84-8.05,17.8-21.12,31.75-10.53,11.22-7.12,28.88-1.67,36.36,3,4.47,12.26,14.53,29.82,16.87,1.41.2,58.9,3,59,3,66.89,3.35,168,4,177.69,4.45,3.81.19-19,57.59-28.55,86.38a9.43,9.43,0,0,0,2.39,10.33c1.72,2.1,4.36,3.21,7.88,3.59,58.36,6.32,107,8.12,158.69,2.48,6.84-.75,12.72-6.77,10.7-13.59-8.82-29.75-25.89-81.67-26.43-89.23-.46-6.39,60.27.22,94.1.74,53.53.84,104.58-.43,152.22-1.76C768.41,1650.1,792.65,1640.15,749.28,1572.85Z" fill="#d88041"/><path d="M704.58,1564.27l-2.36-3.8Z" fill="#3a6146"/><path d="M700.55,1557.77l.7,1.13Z" fill="#3a6146"/><path d="M705,1565h0l-.42-.69.4.65c-27.28-44-58.24-85.66-87.05-128.68-32.14-48.18-3.85-36.1,39.38-39.55,52.05-4.16-16-61.61-27.62-73.7-35.13-36.76-55.56-76.77-79.84-120.55,77,5.63,49.34-26.69,15.45-69.58C543,1104.62,499,982.53,453,990.73c-53,9.43-98.39,104.24-129.73,142.47-10.84,13.22-46.74,52.58-21.37,68.92,16.09,10.38,34-7.84,49.9-5.59-10.72,47.83-78.82,98.34-109.55,134-74.34,86.16,56.17,55.64,55.64,57-2,64.59-176.51,157-141.75,219.72,13.26,23.92,112.39,17.52,136.16,16.54,16.62-.67,96.6-6.51,107.42,9.09C400.64,1696.15,354,1738,443,1737c112.17-1.22,6.15-70,44.55-111.71,49.49-31,283,45.45,217.48-60.34" fill="#3a6146"/><g style="mix-blend-mode:multiply"><path d="M394.9,1291.72c15.5-.15,20-11.34,19.66-22.46a20.4,20.4,0,0,0-21.32-19.45c-11.4.39-20.31,6.72-20,20.83C373.55,1281.77,383.49,1291.82,394.9,1291.72Z" fill="#a7a9ac"/><path d="M462.66,1278.8c15.49-.15,19.14-11.35,19.66-22.47.78-16.53-9.92-19.82-21.32-19.44s-20.32,6.73-20,20.84C441.3,1268.85,451.26,1278.9,462.66,1278.8Z" fill="#a7a9ac"/><path d="M536.53,1321.88c15.5-.14,20-11.34,19.67-22.45A20.42,20.42,0,0,0,534.87,1280c-11.4.39-20.31,6.73-20,20.83C515.18,1311.94,525.12,1322,536.53,1321.88Z" fill="#a7a9ac"/><path d="M450.48,1114c15.49-.14,20-11.33,19.66-22.46a20.41,20.41,0,0,0-21.32-19.45c-11.4.39-20.32,6.73-20,20.84C429.13,1104,439.07,1114.09,450.48,1114Z" fill="#a7a9ac"/><path d="M375.28,1405.6c-11.4.39-20.32,6.74-20,20.84.28,11.13,10.22,21.18,21.62,21.08,15.5-.15,20.05-11.34,19.67-22.47A20.41,20.41,0,0,0,375.28,1405.6Z" fill="#a7a9ac"/><path d="M423.93,1462.34c-11.38.38-21.35,6.79-20,20.83,2,20.22,10.22,21.18,21.63,21.07,15.5-.14,20-11.33,19.66-22.45A20.41,20.41,0,0,0,423.93,1462.34Z" fill="#a7a9ac"/><path d="M341.79,1486.86c-11.4.39-23.09,9.55-22.74,23.65.28,11.14,10.23,21.18,21.63,21.08,15.49-.13,20-11.34,19.66-22.45S353.19,1486.48,341.79,1486.86Z" fill="#a7a9ac"/><path d="M500.35,1501.51c-11.4.4-20.32,6.74-20,20.84.27,11.14,10.21,21.19,21.62,21.08,15.5-.14,18-11.45,19.67-22.46C524,1505.23,511.75,1501.14,500.35,1501.51Z" fill="#a7a9ac"/><path d="M588.09,1484.8a20.39,20.39,0,0,0-21.32-19.45c-11.4.38-23.47,9.78-23.11,23.89.26,11.13,13.36,18.12,24.77,18C583.93,1507.11,588.47,1495.92,588.09,1484.8Z" fill="#a7a9ac"/><path d="M712.28,1572.43c-14.09-22.73-29.37-44.75-44.53-66.78-14.19-20.63-28.61-41.13-42.54-62-3.51-5.25-7.1-10.49-10.12-16-3.46-6.35-15.4-19.33-3.39-23.75,8-2.93,17.87-1.61,26.14-.86,17.4,1.59,56.93,6.74,44.07-23.87-5.38-12.81-19.62-23.64-29.29-33a551.66,551.66,0,0,1-45-49.08,277.77,277.77,0,0,1-29.7-45c-7-13.13-10.85-26.89-19-39.41a31.57,31.57,0,0,1-1.74-2.83,30.94,30.94,0,0,1,3.54.34c5.29.84,10.51,2.2,15.77,3.27,8.72,1.78,17.45,2.87,25.65-1.26,9.16-4.61,8.9-17,7.53-25.49-1.83-11.4-12.5-21.11-20.48-28.44-24.4-22.43-38.48-51.85-55.53-79.9-7.85-12.92-13.59-26.93-22.34-39.35-7.29-10.34-16.56-18.44-23.64-29.11-14.51-21.86-39.93-10.61-56,3.23-10.72,9.23-19.09,21.59-27.39,32.93-9.34,12.76-20.05,24.35-29.71,36.85-10.31,13.35-18.21,28.14-29.37,40.86-9.85,11.23-20.16,21.93-27.29,35.17-10.26,12.87-29.21,37.39-8.74,50.58,7.32,4.72,17.74,2.16,25.46.19,4.83-1.24,9.58-2.77,14.38-4.07,1.73-.47,7.33-1.32,9.33-1.89.25,0,.48.14.73.18-.74,3.28-11.39,19.73-12.76,21.76-8.54,12.63-18.48,24.32-28.59,35.7C295,1287,271.83,1312,249.46,1338c-10.61,12.3-23.63,22-28.24,38.27-3.94,13.79,8.14,19.54,19.57,17.61,10.31-1.74,22.21,1.29,32.94.65,6.23-.37,12.43-.81,18.66-.94,2.82-.06,5.62.09,8.44.29s4.05,1.67,4.27,1.07c-.3,9.74-12,24.1-16.52,31.41-9,14.6-18.8,28.68-28.91,42.49-21.15,28.87-48.91,51.58-71.32,79.34-11.66,14.43-46.15,63.21-14.09,75.25,10.94,4.09,23.49,1.7,34.9,2.71q32.79,2.91,65.6,5c16.56,1,33-.19,49.41-1.47q7.77.62,15.53,1.37c22.46,2.25,65.74,7.15,67.23,9.3,0,1.84-.13,3.72-.18,5.3-.42,14.69-5.4,29.21-8.31,43.52-2.11,10.4-3.8,20.46-6.48,30.77-2.45,9.42,1.53,19.23,11.34,22.16,14.68,4.4,31.84,2.65,47,2.49,15.32-.17,36.74,1.06,49.91-8.22,18.89-13.31.7-51.24-3.58-68.64-2.28-9.22-9.12-26.87-1.78-34.85,7.07-4.43,15.63-4.1,23.78-5.34a114.87,114.87,0,0,1,22.15-1.59c34.84.27,66.33,2.41,101.14,3.42,18.49.54,37-2.44,55.4.1,11.06,1.53,25.45,2,30.06-10.77C733.25,1602.26,720.41,1585.57,712.28,1572.43ZM371.16,1126.37c13.15-17.75,25-35.73,39.22-52.82,11.38-13.72,20.84-28.87,33.23-41.75,5.21-5.41,15.1-14.3,23.46-12.76,3.72.69,10.51,15,13,18.18,5.4,7.06,12.2,12,17.1,19.68s8.88,16.17,13.15,24.28C520.16,1100,532,1118,542.55,1136.5c1.66,2.92,3.45,5.67,5.3,8.36a31.58,31.58,0,0,0-5.22-1.84c-14.64-3.75-22.47,10-33,16.53-2.66,1.66-11-11.06-12.44-12.74a31,31,0,0,0-14.34-9.13c-13.21-4.32-23.79,6.15-31.09,15.41-11.6,14.72-19.55-6.39-31.56-9.92-16.27-4.78-25,5.07-35.41,15.92-4.58,4.77-5.55-2.83-10.36-5.48a37.64,37.64,0,0,0-22.22-5C358.61,1141.31,365.34,1134.24,371.16,1126.37Zm-45.78,63,.66.29c-.38.08-.76.17-1.14.23Zm-9.21,105.09a304.83,304.83,0,0,0,55.47-68.08c4.51-7.59,8.79-16.46,8.24-25.41,25.46-1.46,49.51,9.13,75,13.76,26,4.72,53.43,1.5,79.64-3.68,1.79,6.92,6.42,13.88,9.63,18.88,10,15.52,15,34.38,24.81,50.36,11.49,18.61,25.57,35.72,40.09,52,3.5,3.94,7.11,7.78,10.75,11.56-9.62,3.14-18.55,9.3-28.52,13.29-17.79,7.12-30.76-14.71-47.65-17.13-8.35-1.2-15.78.5-23.19,4.4-6.8,3.59-15.73,18.75-23.72,12-6.57-5.55-8.71-15.47-14.56-21.78-7.05-7.61-15.33-10.83-25.41-12.3-21.05-3.08-37.75,20.47-57.41,5.79-15-11.21-31.11-12.74-47.93-4.45-10.11,5-16.35,9.87-27.2,3.32-8.94-5.39-16.77-6.32-26.88-4.52a66.35,66.35,0,0,0-9.45,2.52C296.79,1314.21,306,1303.66,316.17,1294.46Zm-67.75,77.23c.67-.31,1.29-.68,2-1a17,17,0,0,0,1.06,1.43C250.43,1371.94,249.42,1371.79,248.42,1371.69Zm235.84,348.23c-4.73.86-9.6,1.62-14.35,2-17.57,1.52-38.33,3.1-56,.19.27-.8.55-1.6.79-2.4a108.84,108.84,0,0,0,3.75-17c2-13.58,5.51-26.83,8-40.35a106.06,106.06,0,0,0,2.18-20.71c1.91,0,3.83,0,5.74,0a230.37,230.37,0,0,0,35.46-3.45c-1.91,19.76,8.22,44.24,12.46,60.76,1.52,5.9,4,11.73,4.17,17.83C486.48,1719.36,487.26,1719.37,484.26,1719.92Zm40.18-122c-7.4,2.66-19.16-20.24-22.93-24.71-7.57-8.92-18-11.22-29.08-9.73-14.51,1.93-26.41,24.88-40.25,22-6.75-1.39-13.16-8.47-18.67-12.31-5.77-4-12.25-5.49-19.08-6.43-15.59-2.14-32.27,21.86-45.2,15.08-10.65-5.59-14.58-17.55-28.34-18.45-19.09-1.24-35.64,17-53.61,7.18-15.25-8.38-23.3-20.51-42.46-18.71a44.9,44.9,0,0,0-15.06,4.3c12.36-14.57,26.56-27.62,39.77-41.39,21.31-22.18,39.06-47.92,55.55-73.79,7-11,22.19-31.53,21.62-47.85a3.68,3.68,0,0,0,.32-.37c13.23-18.09,40.46-14.61,59.58-10.86,23.82,4.65,46.74,13.65,69.18,22.69,40.88,16.45,86.91,21.51,128.51,7.73a38,38,0,0,0,.74,4.91c3.72,17.21,21.19,37.26,31.06,51.69,15.39,22.53,31,44.87,46.4,67.42,7.87,11.57,15.78,23.17,23.38,35-4.68,1.84-8.35,5.18-11.86,8.72-6.15,6.19-7.33,9.69-14.93,3.22-10.1-8.62-20.47-17.08-34.46-12.36-6.38,2.16-10.4,8-14.7,12.83-6.13,6.78-10.85-2.12-13.69-6.53-12.69-19.65-35.57-30.84-52-7.64C539,1576.9,533.45,1594.64,524.44,1597.88Z" fill="#a7a9ac"/></g><path d="M387.64,1284.25c15.49-.14,20-11.33,19.66-22.46S397.37,1242,386,1242.34s-20.32,6.74-20,20.84C366.28,1274.3,376.23,1284.36,387.64,1284.25Z" fill="#fff"/><path d="M455.39,1271.33c15.5-.13,19.15-11.33,19.67-22.45.77-16.53-9.92-19.83-21.33-19.45s-20.31,6.73-20,20.83C434,1261.39,444,1271.44,455.39,1271.33Z" fill="#fff"/><path d="M529.26,1314.42c15.5-.14,20-11.34,19.67-22.46a20.41,20.41,0,0,0-21.32-19.45c-11.4.39-20.32,6.73-20,20.84C507.92,1304.48,517.86,1314.53,529.26,1314.42Z" fill="#fff"/><path d="M443.22,1106.52c15.49-.14,20-11.34,19.66-22.45a20.43,20.43,0,0,0-21.33-19.46c-11.39.38-20.31,6.73-20,20.84C421.86,1096.58,431.81,1106.62,443.22,1106.52Z" fill="#fff"/><path d="M368,1398.15c-11.4.38-20.32,6.73-20,20.83.28,11.14,10.22,21.18,21.63,21.07,15.5-.13,20-11.34,19.66-22.45A20.4,20.4,0,0,0,368,1398.15Z" fill="#fff"/><path d="M416.67,1454.88c-11.4.38-21.36,6.79-20,20.83,2,20.22,10.23,21.18,21.63,21.08,15.5-.14,20-11.34,19.67-22.46A20.41,20.41,0,0,0,416.67,1454.88Z" fill="#fff"/><path d="M334.53,1479.4c-11.41.38-23.1,9.55-22.74,23.66.27,11.13,10.22,21.18,21.63,21.07,15.5-.14,20-11.33,19.65-22.46S345.93,1479,334.53,1479.4Z" fill="#fff"/><path d="M493.08,1494.06c-11.39.39-20.31,6.73-20,20.83.27,11.14,10.22,21.18,21.63,21.07,15.49-.14,18-11.44,19.66-22.45C516.72,1497.77,504.49,1493.68,493.08,1494.06Z" fill="#fff"/><path d="M580.83,1477.34a20.42,20.42,0,0,0-21.32-19.46c-11.4.39-23.47,9.79-23.13,23.9.28,11.12,13.38,18.12,24.79,18C576.66,1499.65,581.2,1488.45,580.83,1477.34Z" fill="#fff"/><path d="M757.89,1621.15c-1.09-2.14-4.39-3.57-8.39-3.63s-9.57,1.37-12.65,5.61c-7.62,10.44-41.39,15.49-97.67,14.61-20.46-.32-39.14-1.33-50.3-1.94-4.77-.26-8.22-.44-9.86-.47h-.35c-30.74,0-30.8,1.65-30.83,2.38-.05,1.38-.12,2.93,81.39,6.7,7,.31,14.33.54,21.8.66,32.7.5,63.15-1.07,71.09-2.86a81.37,81.37,0,0,0,16.35-5.37c1-.43,1.93-.84,2.91-1.23C759.3,1628.51,758.89,1623.13,757.89,1621.15Z" fill="#bc6932"/><path d="M463.54,975.12c2.15,2,3.51,5.5-.48,5.13-26.74-2.45-54.74,26-88.65,70.9-12.32,16.32-22.86,31.8-29.14,41-2.7,4-4.64,6.81-5.63,8.13l-.22.27c-18.95,24.18-20.71,22.91-21.46,22.36-1.42-1-3-2.2,43.55-69.2,4-5.75,8.31-11.69,12.82-17.66,19.7-26.1,42-47.46,48.69-52.29C430.14,978.69,455.12,967.22,463.54,975.12Z" fill="#edc5a7"/><path d="M431,1088.5c-2-1.44-1.72,2.15.06,4.3,10.33,12.44,26.5,11.47,26.6-10.42,0-4.06-2.79,2.17-4.75,4.44C445,1096,437.14,1093,431,1088.5Z" fill="#e6e7e8"/><path d="M374,1264.6c-2-1.43-1.71,2.16.06,4.31,10.33,12.43,26.51,11.47,26.6-10.42,0-4-2.79,2.17-4.75,4.44C388,1272.12,380.13,1269.12,374,1264.6Z" fill="#e6e7e8"/><path d="M441.49,1251.17c-1.95-1.44-1.72,2.15.07,4.3,10.32,12.43,26.5,11.47,26.59-10.42,0-4.06-2.79,2.17-4.76,4.44C455.46,1258.67,447.63,1255.68,441.49,1251.17Z" fill="#e6e7e8"/><path d="M515.35,1294.77c-2-1.43-1.71,2.16.07,4.3,10.32,12.44,26.5,11.47,26.59-10.41,0-4.06-2.78,2.16-4.75,4.44C529.33,1302.27,521.5,1299.29,515.35,1294.77Z" fill="#e6e7e8"/><path d="M357,1421.72c-1.94-1.43-1.71,2.16.07,4.3,10.32,12.44,26.5,11.47,26.59-10.42,0-4-2.79,2.17-4.75,4.45C371,1429.22,363.18,1426.24,357,1421.72Z" fill="#e6e7e8"/><path d="M321.53,1507.1c-1.95-1.43-1.72,2.15.07,4.3,10.32,12.43,26.49,11.47,26.59-10.42,0-4-2.79,2.17-4.75,4.45C335.51,1514.6,327.68,1511.61,321.53,1507.1Z" fill="#e6e7e8"/><path d="M404.8,1479.41c-2-1.43-1.72,2.15.06,4.3,10.32,12.43,26.51,11.47,26.59-10.42,0-4-2.78,2.17-4.75,4.45C418.77,1486.91,410.94,1483.92,404.8,1479.41Z" fill="#e6e7e8"/><path d="M483.89,1520c-2-1.43-1.72,2.16.06,4.3,10.32,12.44,26.5,11.47,26.59-10.42,0-4-2.79,2.17-4.75,4.45C497.85,1527.5,490,1524.5,483.89,1520Z" fill="#e6e7e8"/><path d="M548.5,1483.31c-2-1.36-1.62,2.22.25,4.29,10.86,12,27,10.31,26.12-11.56-.16-4-2.69,2.29-4.55,4.64C562.79,1490.2,554.83,1487.55,548.5,1483.31Z" fill="#e6e7e8"/><path d="M705,1565c-27.29-44-58.26-85.7-87.08-128.73-32.14-48.18-3.85-36.1,39.38-39.55,52.05-4.16-16-61.61-27.62-73.7-35.13-36.76-55.56-76.77-79.84-120.55,77,5.63,49.34-26.69,15.45-69.58C543,1104.62,499,982.53,453,990.73c-53,9.43-98.39,104.24-129.73,142.47-10.84,13.22-46.74,52.58-21.37,68.92,16.09,10.38,34-7.84,49.9-5.59-10.72,47.83-78.82,98.34-109.55,134-74.34,86.16,56.17,55.64,55.64,57-2,64.59-176.51,157-141.75,219.72,13.26,23.92,112.39,17.52,136.16,16.54,16.62-.67,96.6-6.51,107.42,9.09C400.64,1696.15,354,1738,443,1737c112.17-1.22,6.15-70,44.55-111.71,49.49-31,283,45.46,217.47-60.36C690.93,1542.24,713.15,1578.1,705,1565ZM363.9,1118.91c16.12-21.77,64.61-113.1,95.9-107.33,29.37,5.44,63.8,101.31,80.79,125.81-19.22-8.59-33.79,23.2-44.91,9.58-15.92-19.52-34-23.11-51.19-1.34-12.46,15.82-31-19.75-51.44-7.82-42.06,24.57.29-.1-48.11,3.37,6.4-7.33,13.13-14.4,19-22.27ZM308.9,1287c21.42-19.37,65.69-61.27,63.71-93.49,53.91-3.1,98.44,21.18,154.65,10.08,12.55,48.16,51.28,97.58,85.28,132.84-40.51,13.2-37.6,1.7-76.17-3.84-45.87-6.61-25.54,33.44-61.47-5.38-11.77-12.71-29.46-15.13-45.28-8.9-29.93,11.79-31.9-4.44-60.83-7.15-17-1.59-35.71,18.14-51.84,8.42-11.56-7-24.07-6.18-36.33-2,8.9-10.81,18.12-21.37,28.28-30.57C330.09,1267.84,298.74,1296.2,308.9,1287ZM477,1712.46c-22.54,4.12-47.69,6-70.37,2.22,7.74-23.55,15.16-55.65,14.7-80.47a224.9,224.9,0,0,0,41.2-3.44c-.8,8.24,17.61,81.11,14.47,81.69Zm40.19-122c-9.8,3.52-30.17-37.38-52-34.44-15,2-24.1,25.36-40.25,22-15.28-3.16-20-16.32-37.75-18.75-15.55-2.13-30.15,23-45.21,15.08-19.17-10.07-21.79-24-46.72-14.95-37.43,13.59-58-27.24-92.74-10.72,27.67-32.64,58.55-60.1,82.67-95.87,13.37-19.82,25.51-67.65,46.79-77.4,72.1-33,161.64,57,245.07,29.42,4.59,51.68,73.94,116.16,101.58,159-9.13,3.6-16.07,21.08-26.79,12-23.3-19.87-50.21,7.3-57.25,1.4-11.07-9.27-14.13-23.31-30.21-27.35-30.82-7.76-26.56,33.21-47.19,40.62Z" fill="#fff"/><path d="M471.66,1386.14c-20.91-3.43-35.52-14.14-51.69-21-12.77-5.42-15.93-4.69-31-6.7-21.11-2.59-44.12-2.12-63.13,4.16-14.16,4.68-16.63,8-31.81,9.11-1.73.15-15.36.35-15.49-1.37a3.11,3.11,0,0,1,2.88-3.32c14.41-1,28-5.54,42.47-10.31,19.66-6.51,40-13.24,62.5-10.46,15.89,2.13,28.9,7.65,41.48,13,16.06,6.81,11.41,10.09,40.77,19.09,1.71.52,19.32,5.8,20.87,6.53C509.07,1394.23,472.33,1386.15,471.66,1386.14Z" fill="#e6e7e8"/><path d="M444.32,1184c15.45,8.84,32.06,8.2,49.1,5.42,24.13-3.93,32.78-10.88,64.81-6.24,1.74.26,14.74,2.1,13.66,1.23-36-29.13-51.08,7.51-118.21-2.86-1.81-.28-12.58-1.75-11.6-1.19Z" fill="#e6e7e8"/><ellipse cx="456.79" cy="976.01" rx="11.37" ry="3.67" fill="#a7a9ac" style="mix-blend-mode:multiply"/><path d="M449,0h14V975.26h0a16,16,0,0,1-12.53.54l-1.47-.54Z" fill="#3a6146"/><rect x="448.97" y="1.59" width="4" height="975.24" fill="#a7a9ac" style="mix-blend-mode:multiply"/><rect x="462.97" y="952.12" width="4" height="25" fill="#a7a9ac" style="mix-blend-mode:multiply"/></g></svg>