<svg xmlns="http://www.w3.org/2000/svg" viewBox="0 0 788.62 1871.7"><g style="isolation:isolate"><rect x="503.25" y="13.22" width="16.85" height="853.98" fill="#ebebec" style="mix-blend-mode:multiply"/><path d="M556.31,915.38a49.64,49.64,0,0,0-15-2.91c-22.41-1-44.36,8.43-50.06,33.71-2.18,9.7-3.86,19.23-1.7,28.51-31.79,17.84-62.3,46.44-96,91.81a31.9,31.9,0,0,0-4.59-.5c-16.68-.69-33.51,10.19-38.48,27.26-6.48,22.36-6.19,35,11.51,45.39-35.29,38-44.59,95-21,122.62-11.42,1.47-20.34,8.44-23,18.55-.11.46-.23,1-.31,1.43-32.72-10-68.8,1.18-78.66,44.6-12.55,55.36,18.25,80.32,56,84a38.37,38.37,0,0,0,2.69,5.88c-51.6,31.27-85,65.71-105.81,144.91-16.74,63.79,1.36,131.57,39.66,184.29,80.38,110.63,223.12,118.7,356.53,59.91,66.63-29.35,103.08-85.06,105.65-185.66,3.74-144.63-113.13-194.59-106.34-198,10.12-5.05,83.73-36.61,54.86-102.57-20.39-46.65-67.92-47.65-103.56-34.77-.21-.41-.39-.83-.6-1.25a112.55,112.55,0,0,0,21.68-72.71c1,.12,1.93.19,2.89.24,16.67.69,32.39-4.95,38.46-27.24,5.38-19.69,3.19-36.83-17.32-48.55,1.33-51.59-4-103-15.2-129.43,8.42-5.92,12-11.18,18.56-24.41C599.58,955.32,592.3,928.66,556.31,915.38Z" fill="#ebebec" style="mix-blend-mode:multiply"/><path d="M528.35,846.76a50,50,0,0,0-15-2.91c-22.4-.94-44.35,8.44-50.05,33.71-2.18,9.7-3.86,19.24-1.7,28.52-31.79,17.84-62.31,46.44-96,91.81a30.54,30.54,0,0,0-4.59-.5c-16.68-.69-33.51,10.19-38.48,27.26-6.48,22.35-6.2,35,11.51,45.39-35.29,38-44.59,95-21,122.62-11.42,1.47-20.34,8.44-23,18.55-.11.46-.23,1-.32,1.42-32.71-10-68.79,1.18-78.65,44.61-12.55,55.35,18.25,80.31,56,84a37.94,37.94,0,0,0,2.69,5.88c-51.6,31.28-85,65.72-105.81,144.91-16.74,63.79,1.36,131.57,39.65,184.3,80.39,110.63,223.13,118.69,356.53,59.91,66.64-29.35,103.08-85.06,105.66-185.66,3.73-144.64-113.14-194.59-106.34-198,10.11-5,83.73-36.6,54.86-102.57-20.39-46.65-67.92-47.65-103.56-34.76-.21-.42-.39-.84-.6-1.26a112.53,112.53,0,0,0,21.68-72.71c1,.12,1.92.19,2.89.25,16.67.68,32.39-5,38.46-27.25,5.38-19.68,3.19-36.82-17.32-48.54,1.33-51.59-4-103-15.2-129.43,8.42-5.92,12-11.19,18.56-24.42C571.61,886.71,564.34,860.05,528.35,846.76Z" fill="#bc6932"/><path d="M651.32,1534.89c3.71-144.64-113.14-194.62-106.33-198,10.08-5.06,83.71-36.6,54.85-102.59-20.39-46.65-67.91-47.68-103.55-34.77-.19-.43-.41-.85-.62-1.27a112.48,112.48,0,0,0,21.7-72.71,25.5,25.5,0,0,0,2.87.26c16.67.71,32.42-5,38.47-27.26,5.37-19.67,3.19-36.8-17.31-48.53,1.3-51.57-4-103-15.21-129.43,8.4-5.94,12-11.2,18.56-24.42,12.47-25.12,5.19-51.8-30.79-65a49.55,49.55,0,0,0-15-2.93c-22.37-1-44.33,8.41-50,33.7-2.2,9.71-3.84,19.22-1.7,28.53-31.8,17.81-62.32,46.41-96,91.79a38.8,38.8,0,0,0-4.59-.49c-16.67-.7-33.5,10.19-38.47,27.26-6.5,22.38-6.19,35,11.5,45.41-35.28,38-44.56,95-21,122.6-11.41,1.45-20.34,8.44-23,18.56-.12.45-.22.92-.33,1.42-32.72-10-68.77,1.16-78.62,44.61-12.56,55.36,18.24,80.33,56,84a38.54,38.54,0,0,0,2.69,5.91c-51.6,31.26-85,65.69-105.81,144.88-16.73,63.78,1.36,131.6,39.68,184.29,80.37,110.63,223.1,118.71,356.51,59.92C612.3,1691.2,648.73,1635.46,651.32,1534.89Z" fill="#d88041"/><path d="M575.58,1671c-56.75,55-127.93,55.33-172.26,57.17-14.06.57-15.07,10.23-2.93,12.11C471,1751,585,1701.54,616.22,1646.93,622.92,1635.21,589,1657.92,575.58,1671Z" fill="#bc6932"/><path d="M269.62,1337.57c-46.21,14-101.72,77.23-105.1,119.58-.74,9.1,13.46-14.59,17.94-26.45,18.88-50,62.29-70.9,88.87-84.93C279.74,1341.34,277.59,1335.16,269.62,1337.57Z" fill="#edc5a7"/><path d="M308.59,1115.57c-1.12,4.5,69.62,61.66,87.84,56.89,6.23-1.66,16.36-19.34,9.28-24.21C392.19,1138.93,309.64,1111.51,308.59,1115.57Z" fill="#a7a9ac" style="mix-blend-mode:multiply"/><path d="M438.72,1224.31c-11.24,4.76-32.74,5.93-53.61,3.64-.15-.93-.27-1.85-.48-2.75-2.78-11-25.42-28-40.41-16.9a28.07,28.07,0,0,0-5.26,5.76,28.53,28.53,0,0,1-3.79-3.18c-27.82-28.5-66.3-2.21-8,27.88a59.38,59.38,0,0,1-4.88,9.13c-12.7,19.92-76.9,67.06-36.76,93.36,25,16.36,40.25,10.48,50.87-2.41,3.15,2.26,7.28,3.69,12.71,4,45.3,2.28,34.38-36.8,32.33-59.54-.53-8-.21-16.35-.28-24.56,1.44.4,2.88.77,4.35,1.19,84.57,22.48,117.54-8.18,105.25-44.25C484.3,1196.82,472.05,1210.1,438.72,1224.31Z" fill="#a7a9ac" style="mix-blend-mode:multiply"/><path d="M371.2,1086.37c-10.38-2.46-20,1.09-23.13,13.91-2.49,10.13,4,21.62,14.35,24.34,14,3.66,20.87-5.34,23.25-15.47A19.07,19.07,0,0,0,371.2,1086.37Z" fill="#a7a9ac" style="mix-blend-mode:multiply"/><path d="M435.94,1101.71c-10.36-2.46-20,1.08-23.12,13.9-2.47,10.13,4,21.63,14.35,24.33,14,3.68,20.88-5.32,23.27-15.43A19.09,19.09,0,0,0,435.94,1101.71Z" fill="#a7a9ac" style="mix-blend-mode:multiply"/><path d="M427.12,1179.42c-1.05-.05-2.14.76-4.79,2.73-5.76,4.28-17.71,13.14-32,12.56a34.71,34.71,0,0,1-6.76-1c-13.16-3.32-23-14.35-27.68-20.65a99.77,99.77,0,0,1-7.89-12.6c-1.67-3.1-2.11-3.92-3.25-4a1.67,1.67,0,0,0-1.18.44c-1.78,1.62,3.07,14.68,7.85,22.85,3.77,6.53,14.25,22.11,30.52,26.28a33.29,33.29,0,0,0,6.67,1c12.52.51,22.62-6.5,27.53-10.7,6.69-5.61,13.17-13.63,12.65-15.34A1.81,1.81,0,0,0,427.12,1179.42Z" fill="#a7a9ac" style="mix-blend-mode:multiply"/><path d="M542,1458.69c-7.7-11.54-24.52,1.79-32.46,5.94.34-8.27,5.91-33.32-8.26-33.93-14.48-.59-10.83,26.16-11.2,34.6l0,0c1.94,14.33-14.3,17-25.12,22.67.51-12.39,7.76-41.45,2-52.57-7.86-14.73-46.56,13.05-56.27,18.12.51-12.19-3.94-28,9.81-32.42l0,0c7.43-3.89,33.21-12,26.61-24.77-7.16-13.64-27.23,3.26-34.28,7,1.58-37.53-20.24-38.45-21.82-.92-5.64-3.58-17.58-15.4-24.93-14.33-30.6-1.34,12.51,29.37,15.79,31.45l0,0c13.36,5.5,7.58,20.93,7.06,33.13-8.4-5.34-40.59-33.11-50.58-26.06-10.36,4.75-6,46.16-6.44,55.83-10.31-6.53-26.27-10.57-23.14-24.69l0,0c.35-8.41,6.21-34.78-8.21-35.41-14.22-.52-10.72,24.79-11.07,33.14-31.72-20.18-43.29-1.61-11.74,18.46-3.71,1.93-47.17,28-17.08,29.3,7,2.06,21.38-9.71,27.41-12.88v.06c11.41-8.78,21.89,3.94,32.18,10.46-8.81,4.59-48.41,18.78-47.9,30.24-1.31,11.23,36.82,28.72,45.2,34-10.83,5.67-22.34,17.47-33,7.7v0c-5.76-3.65-18.65-16.32-26.18-15.06-30-1.32,11,28.35,14.56,30.63-33.32,17.48-22.48,36.42,10.15,19.35-.32,7.64-4.42,24.36,1.56,30.83,11.1,12,16.81-7,17.15-15.06,1.08-25.53,2.24-26.7,25.86-39-.52,12.3-7.81,41.51-1.95,52.56,7.71,14.91,46.67-13.08,56.27-18.1-.51,12.2,4,28-9.82,32.4l.05,0c-7.57,4-33.22,11.92-26.54,24.86,7.12,13.47,27.23-3.38,34.2-7-1.56,37.51,20.28,38.43,21.83.91,5.67,3.6,17.52,15.37,24.92,14.3,30.62,1.41-12.53-29.39-15.79-31.47h0c-13.34-5.49-7.56-20.93-7-33.11,10.45,6.64,32,27.48,44.57,28,16.64.63,12-46.85,12.44-57.79,10.28,6.53,26.2,10.61,23.15,24.66l0,0c-.34,8.43-6.23,34.8,8.24,35.47,14.22.53,10.69-24.81,11-33.16,31.09,19.73,43.47,1.8,11.74-18.41,3.7-1.94,47.14-28.18,17.06-29.32-7-2-21.34,9.68-27.35,12.81v0c-11.43,8.86-21.88-3.87-32.18-10.42,9-4.73,48-18.69,47.87-30.18,1-11.68-36.45-28.57-45.19-34.11,10.79-5.64,22.29-17.42,32.92-7.71v-.07c5.81,3.69,18.65,16.36,26.23,15.13,30.16,1.31-11-28.37-14.56-30.62,8.46-4.44,30.82-11.54,22.34-25.34C538.89,1454.09,542.15,1459,542,1458.69Zm-132.35,17.87q18.3-9.54,36.57-19.12c-.41,9.72,3.3,33.26-1.74,41.2s-27.93,14.61-36.55,19.12l1.72-41.2ZM303,1532.28c8.61-4.5,27.14-19.5,36.53-19.1s26.59,16.89,34.79,22.1c-8.61,4.51-27.13,19.48-36.52,19.08s-26.6-16.87-34.8-22.08Zm79.74,63.55L346.23,1615c.4-9.71-3.33-33.26,1.7-41.2s27.93-14.6,36.54-19.1l-1.72,41.18Zm-31.47-101.11q.86-20.58,1.72-41.16c8.2,5.21,30.43,13.76,34.78,22.08s-1.32,31.49-1.72,41.2l-34.78-22.12Zm88.12,124.13c-7.29-4.63-30.17-13.7-34.24-21.73-4.56-9,.69-30.93,1.14-41.55,8.21,5.2,30.47,13.75,34.82,22.08s-1.31,31.49-1.72,41.2Zm50-78.74c-8.63,4.5-27.17,19.46-36.57,19.06s-26.58-16.85-34.8-22.06c8.62-4.5,27.16-19.49,36.55-19.1s26.61,16.89,34.82,22.1Z" fill="#a7a9ac" style="mix-blend-mode:multiply"/><path d="M535,1451.77c-7.7-11.54-24.51,1.79-32.46,6,.34-8.28,5.91-33.33-8.25-33.94-14.48-.59-10.84,26.16-11.2,34.6l0,0c1.94,14.33-14.3,17-25.12,22.67.51-12.39,7.76-41.45,1.95-52.56-7.86-14.73-46.56,13-56.27,18.12.52-12.2-3.94-28,9.82-32.43l0,0c7.44-3.89,33.21-12,26.61-24.76-7.16-13.64-27.23,3.25-34.27,6.94,1.58-37.53-20.24-38.45-21.83-.91-5.64-3.59-17.57-15.41-24.93-14.34-30.6-1.34,12.52,29.37,15.8,31.46l-.05,0c13.36,5.49,7.58,20.92,7.07,33.12-8.41-5.34-40.6-33.11-50.58-26.06-10.37,4.76-6,46.17-6.44,55.84-10.32-6.54-26.28-10.58-23.15-24.7l0,0c.35-8.41,6.22-34.78-8.21-35.41-14.21-.52-10.72,24.79-11.07,33.14-31.72-20.17-43.29-1.61-11.74,18.46-3.71,1.94-47.17,28-17.08,29.3,7,2.06,21.38-9.71,27.42-12.87v.05c11.41-8.78,21.9,3.94,32.18,10.46-8.81,4.59-48.41,18.78-47.9,30.24-1.31,11.23,36.82,28.72,45.2,34-10.83,5.66-22.34,17.47-33,7.69v0c-5.76-3.65-18.65-16.31-26.17-15.06-30-1.31,11,28.36,14.55,30.63-33.32,17.48-22.47,36.43,10.15,19.35-.32,7.64-4.41,24.36,1.56,30.84,11.1,12,16.81-7,17.15-15.07,1.09-25.53,2.24-26.7,25.86-39-.52,12.3-7.8,41.51-1.95,52.56,7.71,14.92,46.67-13.08,56.27-18.1-.51,12.2,3.95,28-9.81,32.41h0c-7.56,4-33.21,11.92-26.53,24.86,7.12,13.47,27.23-3.37,34.19-7-1.56,37.51,20.28,38.43,21.83.91,5.67,3.6,17.52,15.37,24.92,14.3,30.62,1.42-12.53-29.39-15.79-31.46h0c-13.34-5.49-7.56-20.92-7-33.1,10.45,6.63,32,27.48,44.57,28,16.64.64,12-46.84,12.45-57.79,10.27,6.53,26.2,10.61,23.14,24.66l0,0c-.35,8.43-6.24,34.8,8.23,35.48,14.23.52,10.7-24.82,11-33.17,31.09,19.74,43.48,1.8,11.74-18.41,3.7-1.94,47.14-28.18,17.07-29.32-7-2-21.35,9.69-27.36,12.82v-.05c-11.43,8.86-21.88-3.86-32.18-10.41,9-4.73,48-18.7,47.88-30.19,1-11.68-36.46-28.57-45.2-34.11,10.79-5.64,22.29-17.41,32.92-7.71v-.06c5.82,3.69,18.65,16.36,26.23,15.12,30.16,1.31-11-28.37-14.56-30.62,8.46-4.44,30.83-11.54,22.34-25.34C532,1447.17,535.23,1452.09,535,1451.77ZM402.7,1469.64q18.29-9.54,36.56-19.12c-.41,9.72,3.31,33.26-1.73,41.2s-27.94,14.61-36.56,19.12l1.73-41.2Zm-106.61,55.72c8.61-4.5,27.14-19.49,36.53-19.1s26.59,16.9,34.79,22.11c-8.61,4.5-27.13,19.47-36.52,19.08s-26.59-16.88-34.8-22.09Zm79.74,63.56L339.31,1608c.4-9.71-3.33-33.26,1.71-41.19s27.92-14.61,36.53-19.11l-1.72,41.19ZM344.36,1487.8q.86-20.57,1.72-41.15c8.2,5.2,30.43,13.75,34.78,22.07s-1.31,31.49-1.72,41.21l-34.78-22.13Zm88.12,124.13c-7.29-4.63-30.17-13.7-34.23-21.72-4.57-9,.69-30.94,1.13-41.56,8.21,5.21,30.47,13.75,34.82,22.08s-1.31,31.49-1.72,41.2Zm50-78.73c-8.63,4.49-27.16,19.45-36.57,19.06s-26.58-16.86-34.79-22.07c8.61-4.5,27.15-19.49,36.54-19.1s26.61,16.9,34.82,22.11Z" fill="#fff"/><path d="M301.68,1108.65c-1.13,4.5,69.61,61.66,87.84,56.89,6.22-1.66,16.36-19.34,9.27-24.21C385.27,1132,302.73,1104.59,301.68,1108.65Z" fill="#fff"/><path d="M431.8,1217.4c-11.23,4.75-32.74,5.92-53.6,3.63-.16-.93-.28-1.84-.49-2.75-2.78-11-25.42-28-40.41-16.9a28.33,28.33,0,0,0-5.26,5.76,29.83,29.83,0,0,1-3.78-3.17c-27.82-28.5-66.31-2.22-8.05,27.88a58.86,58.86,0,0,1-4.88,9.12c-12.7,19.92-76.9,67.06-36.76,93.36,25,16.36,40.25,10.48,50.87-2.41,3.15,2.27,7.28,3.7,12.71,4,45.31,2.28,34.39-36.79,32.34-59.53-.54-8-.22-16.36-.28-24.56l4.35,1.18c84.56,22.48,117.53-8.17,105.24-44.24C477.39,1189.9,465.13,1203.18,431.8,1217.4Z" fill="#fff"/><path d="M364.28,1079.45c-10.38-2.46-20,1.1-23.13,13.91-2.48,10.13,4,21.62,14.35,24.34,14,3.66,20.87-5.34,23.26-15.47A19.09,19.09,0,0,0,364.28,1079.45Z" fill="#fff"/><path d="M429,1094.79c-10.37-2.45-20,1.09-23.13,13.9-2.47,10.14,4,21.63,14.36,24.33,14,3.68,20.88-5.32,23.26-15.42A19.09,19.09,0,0,0,429,1094.79Z" fill="#fff"/><path d="M420.2,1172.51c-1.05-.06-2.14.75-4.78,2.73-5.76,4.27-17.72,13.14-32,12.55a33.76,33.76,0,0,1-6.75-1c-13.17-3.32-23-14.35-27.69-20.65a97.64,97.64,0,0,1-7.88-12.6c-1.67-3.1-2.12-3.91-3.25-4a1.67,1.67,0,0,0-1.18.44c-1.78,1.62,3.06,14.69,7.85,22.85,3.76,6.53,14.24,22.11,30.51,26.28a32,32,0,0,0,6.67,1c12.52.52,22.62-6.49,27.53-10.7,6.69-5.6,13.17-13.63,12.65-15.33A1.79,1.79,0,0,0,420.2,1172.51Z" fill="#fff"/><path d="M468.37,873c-4.34,14.27-1.66,23.79,5.18,30.11-33.46,8.1-83.83,69.91-103.6,95.65l-3.84-1.38c-20.38-8.41-25.95,13.28-26.27,15.76-2,14.58-7.54,26.8,58.13,42.28,86.36,20.39,115.55,36.72,115.55,36.72,9.07,3.25,19.43-2.46,23.11-12.74s-.68-21.32-9.77-24.55l-9.57-3.41c1-31.94,1.24-109.61-18.49-138.25,10.28.67,19.38-3.92,24.47-20.56,4.71-15.4,4.63-23.64-17.63-37.27C491.91,847,473.06,857.59,468.37,873Z" fill="#ed1c24"/><path d="M435.11,1117.82c-9.42,7-16.21,2.59-21.08-3-1.55-1.76-2.09,1.66-.84,4.09,7.18,13.9,22.71,16.36,27.33-4.33C441.39,1110.76,437.43,1116.06,435.11,1117.82Z" fill="#e6e7e8"/><path d="M369.91,1101.42c-9.41,7-16.19,2.57-21.07-3-1.55-1.79-2.08,1.63-.84,4.06,7.19,13.9,22.7,16.34,27.33-4.33C376.19,1094.36,372.24,1099.66,369.91,1101.42Z" fill="#e6e7e8"/><path d="M358.23,1308.56c-17.55,7.87-30.24,2.86-39.36-3.39-2.89-2-3.87,1.91-1.54,4.6,13.45,15.62,42.44,18.39,51-4.79C369.94,1300.7,362.58,1306.62,358.23,1308.56Z" fill="#e6e7e8"/><path d="M549.86,1064.77c-7.82-16.47-17.58-7.09-17.43-25,.19-23.72-.57-47.56-3.72-71.09C527,956.1,515.24,929.93,524.14,923c11.67-9.11,19.05-29.55,15.63-44.09-8.86-37.64-65.2-40.37-76.52-3.09A49.34,49.34,0,0,0,461,896.2c1.58,12.84-5.33,11.08-15.67,18.75-19.61,14.56-36.61,32.66-52.54,51.06q-7.69,8.91-15.08,18.07c-10.89,13.49-11.1,2.83-25.48,8.9-13.57,5.74-19,21.43-19,35.09-.06,37.31,69.71,43.37,94.18,49.79,27.15,7.12,54.72,14.84,80.39,26.37,24.82,11.15,56-10,42.05-39.46C546.76,1058.25,553.29,1072,549.86,1064.77Zm-18.2,17c-5.44,15.21-100.58-24-112.46-27-14.57-3.62-68.53-8.91-65-32.09,3.3-21.76,19.35-.08,28.45-11.93C394.86,994.82,475.89,886,497.8,929.46c12.69,25.18,13.22,57.83,14,85.32.35,11.89-5.13,38.21,1.66,48.17,5.34,7.84,23.37,4.2,18.16,18.8C530,1086.28,532.67,1078.9,531.66,1081.75Z" fill="#a7a9ac" style="mix-blend-mode:multiply"/><path d="M544.9,1058.29c-.09-.21-.19-.4-.26-.57C544.71,1057.87,544.8,1058.06,544.9,1058.29Z" fill="#fff"/><path d="M545,1058.51c0-.08-.07-.15-.11-.22S545,1058.43,545,1058.51Z" fill="#fff"/><path d="M545.23,1059a.79.79,0,0,0,0-.09Z" fill="#fff"/><path d="M545.19,1058.89l-.18-.38Z" fill="#fff"/><path d="M544.64,1057.72l-.08-.16Z" fill="#fff"/><path d="M545.24,1059c-7.81-16.48-17.57-7.1-17.42-25,.19-23.71-.57-47.55-3.72-71.08-1.68-12.58-13.47-38.74-4.57-45.69,11.67-9.11,19.05-29.55,15.63-44.09-8.86-37.63-65.2-40.37-76.52-3.08a49.34,49.34,0,0,0-2.25,20.39c1.58,12.84-5.33,11.07-15.67,18.75-19.61,14.56-36.61,32.65-52.54,51.06q-7.71,8.89-15.08,18.06c-10.89,13.5-11.1,2.83-25.48,8.91-13.58,5.73-19,21.42-19,35.08-.06,37.31,69.7,43.37,94.18,49.79,27.15,7.13,54.72,14.84,80.39,26.38C528,1109.62,559.24,1088.49,545.24,1059ZM378,1005c12.22-15.92,93.26-124.74,115.17-81.27,12.69,25.18,13.22,57.82,14,85.31.23,7.8-2.05,21.81-1.73,33.33L376.1,1006.9A10.32,10.32,0,0,0,378,1005Z" fill="#fff"/><path d="M545.23,1059a0,0,0,0,1,0,0l1,2.07Z" fill="#fff"/><path d="M546.23,1061.08Z" fill="#fff"/><path d="M544.56,1057.56l-.11-.22Z" fill="#fff"/><path d="M544.41,1057.25Z" fill="#fff"/><path d="M544.45,1057.34a.39.39,0,0,0,0-.09A.39.39,0,0,1,544.45,1057.34Z" fill="#fff"/><path d="M514.33,886c-16.43,8.78-28.3,3.2-36.85-3.75-2.7-2.18-3.62,2.11-1.43,5.12,12.57,17.35,39.71,20.42,47.75-5.36C525.3,877.23,518.4,883.85,514.33,886Z" fill="#e6e7e8"/><path d="M378,1528.85c-.92-1.57-1.83,1-1.25,3,3.38,11.66,14.82,15.85,21.44.8,1.23-2.79-2.57.66-4.6,1.64C385.36,1538.21,380.85,1533.8,378,1528.85Z" fill="#e6e7e8"/><ellipse cx="498.93" cy="852.88" rx="11.37" ry="3.67" fill="#a7a9ac" style="mix-blend-mode:multiply"/><path d="M491.11,0h14V854h0a18.1,18.1,0,0,1-12.54.48l-1.46-.48Z" fill="#d88041"/><rect x="491.11" y="1.39" width="4" height="853.98" fill="#a7a9ac" style="mix-blend-mode:multiply"/><rect x="505.11" y="828.99" width="4" height="25" fill="#a7a9ac" style="mix-blend-mode:multiply"/></g></svg>